<svg width="150" height="66" viewBox="0 0 300 66" fill="none" xmlns="http://www.w3.org/2000/svg">
<g clip-path="url(#clip0_3_47)">
<path d="M0.130142 65.8694H299.565V0H0.130142V65.8694Z" fill="white" style="mix-blend-mode:color"/>
<path d="M44.1905 17.9934C40.9615 16.7767 35.1525 14.8966 26.6037 14.8966C11.0392 14.8966 8.39233e-05 22.733 8.39233e-05 32.7241C8.39233e-05 43.2637 9.49445 50.2179 26.5488 50.2179C35.1728 50.2179 40.6125 48.1671 43.9877 46.7864C44.0604 46.7602 44.0992 46.6952 44.1001 46.6115L44.0468 38.3002C44.0485 38.2005 43.9801 38.132 43.8821 38.1211L43.2449 38.0847C43.1553 38.0813 43.086 38.1574 43.0691 38.2191C41.0376 45.8392 34.5567 48.7274 26.5488 48.7274C15.5654 48.7274 7.94797 42.6029 7.94797 32.5577C7.94797 22.4575 14.5716 16.4412 26.6037 16.4412C35.2049 16.4412 40.5432 20.0856 42.6187 25.9676C42.6466 26.0496 42.7057 26.1011 42.7894 26.1003H43.4477C43.5381 26.0994 43.6083 26.0158 43.6192 25.9338L44.3088 18.1852C44.3164 18.1067 44.2877 18.0382 44.1905 17.9934Z" fill="black"/>
<path d="M89.3448 38.6944V38.6935L89.0524 38.6285L88.804 38.5735L88.695 38.549C88.6299 38.5364 88.5471 38.5465 88.4871 38.6411C87.6944 40.0683 86.8696 41.3721 85.9299 42.5264C84.964 43.7136 83.8772 44.7436 82.58 45.5886C81.2828 46.4336 79.7752 47.0944 77.9685 47.5448C76.16 47.9935 74.0524 48.2309 71.5552 48.2309H70.1761C68.3685 48.2309 66.9606 48.0932 65.8662 47.8042C64.7719 47.5152 63.9902 47.075 63.435 46.4717C62.8797 45.8675 62.5502 45.1002 62.3592 44.1564C62.169 43.2125 62.1175 42.0921 62.1175 40.7798V24.3887C62.1175 23.7677 62.1243 23.188 62.1471 22.6472C62.1707 22.1047 62.2096 21.6011 62.2755 21.133C62.3406 20.6632 62.4327 20.2288 62.5595 19.8249C62.6862 19.4219 62.8485 19.0492 63.0555 18.7045C63.2347 18.4147 63.4451 18.1536 63.6935 17.9186C63.9428 17.6829 64.2285 17.4767 64.5597 17.2967C64.891 17.1176 65.2662 16.9655 65.6947 16.8413C66.0817 16.7289 66.5119 16.6393 66.9885 16.5717C67.0231 16.5667 67.1457 16.5109 67.1406 16.3765V15.7056C67.1304 15.5071 66.9496 15.5104 66.9496 15.5104C66.9496 15.5104 66.1476 15.5358 65.6905 15.5468C65.1564 15.5603 64.5682 15.5721 63.9133 15.5823C63.2575 15.5916 62.535 15.6 61.7347 15.6051C60.9327 15.611 60.053 15.6135 59.0812 15.6135C58.4997 15.6135 57.9006 15.6135 57.2786 15.6118C56.6566 15.6101 56.0119 15.6068 55.3375 15.6008C54.6631 15.5941 53.9583 15.5848 53.2181 15.5696C52.4786 15.5552 51.7028 15.5358 50.8857 15.5104C50.884 15.5104 50.6955 15.5147 50.6913 15.7006V15.9921V16.1247V16.3791C50.693 16.3791 50.6837 16.5447 50.8645 16.5751C51.3327 16.6419 51.7561 16.7306 52.1372 16.8413C52.5648 16.9655 52.94 17.1176 53.2721 17.2967C53.6034 17.4767 53.889 17.6829 54.1383 17.9186C54.3859 18.1536 54.5964 18.4147 54.7764 18.7045C54.9834 19.0492 55.1457 19.4219 55.2716 19.8249C55.3992 20.2288 55.4904 20.6632 55.5564 21.133C55.6214 21.6011 55.6612 22.1047 55.6848 22.6472C55.7076 23.188 55.7144 23.7677 55.7144 24.3887V40.7798C55.7144 41.4009 55.7076 41.9814 55.6848 42.5213C55.6612 43.0638 55.6214 43.5683 55.5564 44.0355C55.4904 44.5054 55.3992 44.9405 55.2716 45.3436C55.1457 45.7475 54.9834 46.1201 54.7764 46.4649C54.5964 46.7539 54.3859 47.0184 54.1383 47.2507C53.889 47.4856 53.6034 47.6927 53.2721 47.8726C52.94 48.0518 52.5648 48.203 52.1372 48.3264C51.7527 48.4388 50.8527 48.5951 50.8527 48.5951C50.8527 48.5951 50.6938 48.6112 50.6913 48.7903V49.4629C50.693 49.5829 50.7876 49.6606 50.884 49.6606C51.6547 49.6353 52.3882 49.6159 53.0896 49.6015C53.8485 49.5871 54.5693 49.5761 55.2589 49.5685C55.9493 49.5618 56.6076 49.5584 57.2423 49.5567C57.8778 49.5559 58.4879 49.5559 59.0812 49.5559H77.5721C78.6479 49.5559 79.7144 49.5618 80.7073 49.5719C81.7012 49.5837 82.6223 49.5973 83.409 49.6108C84.195 49.6251 84.8474 49.6387 85.302 49.6488C85.5657 49.6556 85.7617 49.6606 85.8826 49.6623C86.0144 49.6581 86.0499 49.5516 86.0609 49.5305L88.6654 41.4702L89.4868 38.931C89.4995 38.9065 89.5155 38.7375 89.3448 38.6944Z" fill="black"/>
<path d="M135.95 48.5982C132.29 48.1386 130.004 44.9673 127.499 40.6156L117.177 23.0086C114.836 18.9814 112.034 14.3661 112.034 14.3661C112.034 14.3661 112.031 14.3585 112.021 14.3483C111.986 14.2959 111.951 14.2892 111.853 14.2892C111.824 14.2892 111.639 14.2875 111.541 14.2892C111.443 14.2909 111.42 14.3213 111.383 14.3771C110.297 16.176 109.176 18.242 105.863 23.6719L96.7002 38.5175C92.4985 45.4667 89.8737 48.1031 88.1084 48.5847C88.0087 48.627 87.9791 48.7174 87.9791 48.763V49.472C87.9867 49.5742 88.0661 49.6562 88.1752 49.6578C89.3988 49.6055 90.8329 49.5548 93.609 49.5548C96.2752 49.5548 100.217 49.6604 100.217 49.6604C100.217 49.6604 100.394 49.6494 100.399 49.4601C100.399 49.2227 100.4 48.8585 100.399 48.7681C100.397 48.6878 100.348 48.6101 100.25 48.583C97.3273 47.9062 96.3149 46.4334 96.3149 44.5888C96.3149 42.7678 97.4185 40.6156 98.9084 37.9657L100.043 35.9547C100.088 35.882 100.133 35.8144 100.265 35.8136H117.239C117.333 35.8178 117.417 35.8507 117.479 35.9479L119.716 39.7318C121.207 42.271 122.367 44.0919 122.367 45.7472C122.367 47.2657 121.192 48.1453 118.217 48.5932C118.061 48.6287 118.062 48.7799 118.062 48.7799V49.4618C118.067 49.608 118.169 49.6705 118.25 49.6667C121.377 49.6612 124.245 49.5548 127.058 49.5548C129.824 49.5548 135.929 49.6667 135.929 49.6667C135.929 49.6667 136.101 49.6587 136.109 49.4694V48.8019C136.109 48.8019 136.119 48.6346 135.95 48.5982ZM116.182 34.2681H101.351C101.182 34.2605 101.122 34.0898 101.191 33.9706L102.939 31.1771C106.31 25.5909 107.622 23.4776 108.644 21.8087C108.729 21.6752 108.882 21.6718 108.977 21.7986C109.894 23.3305 111.591 26.0294 114.639 31.1771L116.335 33.9706C116.4 34.0627 116.36 34.2605 116.182 34.2681Z" fill="black"/>
<path d="M294.151 32.5579C291.002 31.0673 286.919 30.295 282.559 29.5219L279.137 28.9152C271.798 27.7001 268.649 26.1005 268.649 22.2372C268.649 18.7052 272.68 16.3316 280.573 16.3316C289.042 16.3316 292.968 20.2253 294.382 25.1752C294.415 25.269 294.472 25.3265 294.592 25.3265H295.306C295.403 25.3273 295.479 25.2454 295.491 25.1541L296.187 17.4335C296.191 17.4022 296.181 17.376 296.139 17.3633C291.739 15.9902 287.169 14.8968 280.627 14.8968C270.362 14.8968 262.469 18.0968 262.469 24.555C262.469 31.1223 268.707 33.0539 277.152 34.5986L280.406 35.1512C287.969 36.531 293.764 37.4698 293.764 42.326C293.764 46.7968 287.637 48.7259 279.799 48.7259C272.396 48.7259 265.536 45.7837 263.285 38.2193C263.258 38.1365 263.199 38.0782 263.095 38.0774H262.425C262.334 38.0816 262.248 38.1391 262.232 38.2624L261.482 46.7799C261.476 46.8213 261.494 46.861 261.546 46.8813C263.923 47.8911 270.508 50.2182 279.799 50.2182C292.054 50.2182 299.727 46.9607 299.727 39.9516C299.727 36.4753 297.517 34.1575 294.151 32.5579Z" fill="black"/>
<path d="M257.725 15.508C255.466 15.5612 253.065 15.6136 251.028 15.6136C248.774 15.6136 246.675 15.5612 244.018 15.508C243.916 15.5071 243.799 15.573 243.799 15.7327V16.4231C243.8 16.5059 243.842 16.6048 243.973 16.6276C246.945 16.9766 248.397 17.9593 249.262 19.3662C250.422 21.2978 250.479 24.1674 250.479 28.2529V32.2261C250.479 36.435 250.515 39.3738 250.527 40.3312C250.529 40.4977 250.378 40.545 250.269 40.4605C249.68 39.885 247.776 38.0759 243.522 34.4881L231.094 23.6714C226.119 19.4456 222.649 16.3597 221.997 15.6212C221.951 15.5747 221.893 15.5621 221.857 15.5612C220.204 15.6136 217.832 15.6136 216.424 15.6136C214.362 15.6136 213.687 15.6136 210.424 15.5097C210.331 15.5114 210.243 15.5899 210.242 15.6989V16.4569C210.254 16.6124 210.388 16.6377 210.388 16.6377C212.254 17.0121 214.216 17.4743 216.025 19.3003C216.095 19.373 216.091 19.4634 216.091 19.4651V36.8076C216.091 40.8914 216.037 43.7602 214.878 45.6918C214.011 47.0979 212.511 48.0274 210.062 48.531C209.961 48.5546 209.909 48.6459 209.91 48.7135V49.4689C209.911 49.5703 209.992 49.6666 210.111 49.6607C212.333 49.6075 214.111 49.5551 216.147 49.5551C218.414 49.5551 221.105 49.6083 223.804 49.6624C223.868 49.6607 223.981 49.5973 223.984 49.4647V48.7295C223.981 48.6256 223.929 48.5529 223.834 48.531C221.38 48.0274 219.773 47.0979 218.905 45.6918C217.745 43.7602 217.692 40.8914 217.692 36.8076V32.6122C217.692 26.699 217.609 22.044 217.587 20.8331C217.587 20.681 217.757 20.6362 217.842 20.7148C217.883 20.752 222.607 25.0217 228.279 29.8525L239.882 39.8977C243.084 42.6558 251.691 50.2733 251.691 50.2733C251.691 50.2733 251.641 50.2269 251.829 50.3942C251.93 50.4685 252.134 50.4178 252.133 50.2235C252.133 50.1348 252.077 41.0562 252.077 37.3585V28.2529C252.077 24.1674 252.134 21.2978 253.294 19.3662C254.157 17.961 255.341 17.1371 257.775 16.6394C257.888 16.6065 257.924 16.5279 257.929 16.4383V15.7158C257.926 15.5908 257.845 15.5088 257.725 15.508Z" fill="black"/>
<path d="M182.614 48.6379C178.973 47.7244 177.773 45.2106 176.465 42.161L176.134 41.3321C173.876 35.7374 171.998 33.1036 165.486 32.7622C165.268 32.7512 165.281 32.4758 165.461 32.4546C172.009 32.0778 177.567 29.3696 177.567 23.5062C177.567 16.4413 169.346 15.5591 160.128 15.5591C158.362 15.5591 156.539 15.6132 154.718 15.6132H146.935C144.614 15.6132 140.814 15.6132 137.961 15.5115C137.857 15.5076 137.772 15.6022 137.772 15.7011V16.3787C137.776 16.4878 137.833 16.5528 137.934 16.5739C139.987 16.8646 141.158 17.5753 141.857 18.705C142.685 20.084 142.796 21.9058 142.796 24.3892V40.7795C142.796 43.2637 142.685 45.0855 141.857 46.4654C141.158 47.5943 139.99 48.3041 137.938 48.5939C137.857 48.61 137.776 48.6759 137.772 48.779V49.4558C137.772 49.6079 137.889 49.662 137.967 49.6603C141.241 49.5555 143.836 49.5555 146.163 49.5555C148.649 49.5555 154.033 49.6603 154.033 49.6603C154.033 49.6603 154.214 49.6535 154.221 49.4609V48.7891C154.221 48.7038 154.167 48.6167 154.068 48.5956C152.01 48.3058 150.838 47.596 150.138 46.4654C149.308 45.0855 149.198 43.2637 149.198 40.7795V33.3926C149.195 33.2261 149.276 33.167 149.395 33.1644C150.67 33.1585 154.636 33.1087 156.043 33.1087C164.378 33.1087 167.358 36.6416 169.289 41.6642C170.725 45.3069 172.547 49.6104 173.816 49.6104H176.355C178.989 49.6104 180.366 49.6104 182.577 49.662C182.682 49.6569 182.752 49.5733 182.756 49.4651V48.8195C182.752 48.7342 182.699 48.659 182.614 48.6379ZM149.41 31.619C149.263 31.6147 149.202 31.5784 149.198 31.4711V17.2449C149.199 17.1054 149.272 17.0488 149.398 17.0429C151.365 16.9905 157.527 16.9381 158.858 16.9381C164.599 16.9381 170.339 17.5457 170.339 23.5062C170.339 31.3984 163.33 31.619 157.092 31.619H149.41Z" fill="black"/>
<path d="M203.445 49.4631V48.8006C203.445 48.7998 203.444 48.7998 203.444 48.7998C203.442 48.6527 203.353 48.6122 203.278 48.5944C201.231 48.3037 200.059 47.5931 199.362 46.4659C198.534 45.0843 198.425 43.2634 198.425 40.78V24.3897C198.425 21.9055 198.534 20.0845 199.362 18.7047C200.063 17.5707 201.241 16.8609 203.308 16.5702C203.38 16.555 203.445 16.4866 203.445 16.3708V15.699C203.44 15.5866 203.357 15.5047 203.256 15.51C200.258 15.6137 197.875 15.6137 195.389 15.6137C193.061 15.6137 190.469 15.6137 187.195 15.51C187.058 15.5081 187 15.6103 186.996 15.7058V16.3767C187.003 16.4849 187.066 16.555 187.163 16.5736C189.212 16.866 190.383 17.5758 191.082 18.7047C191.911 20.0845 192.019 21.9055 192.019 24.3897V40.78C192.019 43.2634 191.911 45.0843 191.082 46.4659C190.365 47.6235 189.15 48.3418 186.996 48.6172V49.6659C190.365 49.5552 193.013 49.5552 195.389 49.5552C197.876 49.5552 200.258 49.5552 203.26 49.6591C203.378 49.6608 203.444 49.5484 203.445 49.4631Z" fill="black"/>
</g>
<defs>
<clipPath id="clip0_3_47">
<rect width="300" height="65.9091" fill="white"/>
</clipPath>
</defs>
</svg>
