<svg width="150" height="66" viewBox="0 0 300 62" fill="none" xmlns="http://www.w3.org/2000/svg">
<g clip-path="url(#clip0_3_71)">
<path fill-rule="evenodd" clip-rule="evenodd" d="M268.191 1.72766C268.191 1.72766 288.878 2.08623 299.578 0.847534V7.85595C299.578 7.85595 298.573 3.91168 290.564 4.7918L277.302 6.29128V23.6656H298.314V27.5121H277.205V47.2986L287.095 48.244C288.975 48.3743 296.466 49.4827 300.032 44.0063L299.416 47.8528C299.416 47.8528 299.319 51.2429 294.942 51.2429H267.185C267.185 51.2429 269.682 49.3523 269.682 44.1367V15.6467C269.65 15.6467 269.877 8.18192 268.191 1.72766Z" fill="black"/>
<path fill-rule="evenodd" clip-rule="evenodd" d="M220.071 1.27131H230.383V39.1819C230.383 39.1819 230.285 49.4175 242.023 49.4175C253.761 49.4175 255.934 39.4427 255.934 33.3144V9.51841C255.934 9.51841 256.291 3.81389 252.789 1.23871H261.187C261.187 1.23871 260.409 4.40064 260.409 8.5405V37.3891C260.409 37.3891 262.062 52.9054 241.375 52.9054C220.72 52.9054 221.822 41.0726 221.822 37.0957V9.714C221.822 9.714 221.984 5.37856 220.071 1.27131Z" fill="black"/>
<path fill-rule="evenodd" clip-rule="evenodd" d="M97.9896 0.945328H108.204L134.371 36.3786L136.576 7.52998C136.576 7.52998 137.484 3.45532 133.431 1.07572H140.175V50.6888H134.825L105.999 12.4522L104.118 42.4091C104.118 42.4091 103.145 47.7876 106.647 50.6888H100V7.85595C100 7.85595 99.9351 4.46583 97.9896 0.945328Z" fill="black"/>
<path fill-rule="evenodd" clip-rule="evenodd" d="M149.481 1.2061H160.117C160.117 1.2061 158.625 8.86646 158.625 18.5804V42.7024C158.625 42.7024 158.528 49.5153 159.144 51.0473H150.259C150.259 51.0473 150.908 46.3533 150.908 41.2355V20.7971C150.908 20.7971 151.556 9.15983 149.481 1.2061Z" fill="black"/>
<path fill-rule="evenodd" clip-rule="evenodd" d="M81.096 1.2061H91.7315C91.7315 1.2061 90.2399 8.86646 90.2399 18.5804V42.7024C90.2399 42.7024 90.1427 49.5153 90.7912 51.0473H81.8418C81.8418 51.0473 82.5227 46.3533 82.5227 41.2355V20.7971C82.5227 20.7971 83.1712 9.15983 81.096 1.2061Z" fill="black"/>
<path fill-rule="evenodd" clip-rule="evenodd" d="M47.179 1.59727H57.0687C57.0687 1.59727 56.2257 17.8633 56.2257 22.9485V46.8749C56.2257 46.8749 60.9922 48.1788 67.0233 48.1788C73.0545 48.1788 75.4864 46.2229 77.4968 42.9306C77.4968 42.9306 77.2698 47.9832 74.8703 50.8843H47.4384C47.4384 50.8843 48.4436 44.7887 48.4436 37.5521V15.3207C48.476 15.3207 48.7354 7.52998 47.179 1.59727Z" fill="black"/>
<path fill-rule="evenodd" clip-rule="evenodd" d="M26.4267 5.95371e-06C26.4267 5.95371e-06 35.214 0.130395 40.2399 2.37961V8.24711C40.2399 8.24711 36.4462 3.74869 26.7834 3.74869C17.1206 3.74869 7.94423 10.6919 7.94423 26.143C7.94423 41.5941 16.5694 49.0915 26.8482 49.0915C37.1595 49.0915 41.2776 41.7571 41.2776 41.7571C41.2776 41.7571 42.4449 48.8307 36.284 51.0799C36.284 51.0799 30.3178 52.1882 27.0752 52.1882C23.8327 52.1882 0 53.7855 0 26.4364C0 -0.880122 22.0493 5.95371e-06 26.4267 5.95371e-06Z" fill="black"/>
<path d="M196.66 51.4711C207.62 48.6025 215.759 38.3344 215.759 26.143C215.759 11.8002 209.144 0.032608 190.532 0.032608C171.92 0.032608 165.305 11.7676 165.305 26.143C165.305 40.0947 171.206 51.5363 188.975 52.1882C196.887 54.5026 200.195 58.2839 204.345 60.1746C209.306 62.3586 213.911 61.9348 213.911 61.9348V59.653C209.306 59.653 207.62 56.5237 204.345 53.8833C202.432 52.3512 199.189 51.6667 196.66 51.4711ZM173.508 26.3712C173.508 13.8213 178.275 3.55311 190.694 3.55311C203.08 3.55311 207.847 13.8213 207.847 26.3712C207.847 38.9212 202.432 49.1241 190.694 49.1241C178.891 49.1567 173.508 38.9212 173.508 26.3712Z" fill="black"/>
</g>
<defs>
<clipPath id="clip0_3_71">
<rect width="300" height="62" fill="white"/>
</clipPath>
</defs>
</svg>
