<?xml version="1.0" encoding="UTF-8"?>
<!DOCTYPE svg PUBLIC "-//W3C//DTD SVG 1.1//EN" "http://www.w3.org/Graphics/SVG/1.1/DTD/svg11.dtd">
<!-- Creator: CorelDRAW 2019 (64-Bit) -->
<svg xmlns="http://www.w3.org/2000/svg" xml:space="preserve" width="150" height="66" version="1.1" style="shape-rendering:geometricPrecision; text-rendering:geometricPrecision; image-rendering:optimizeQuality; fill-rule:evenodd; clip-rule:evenodd"
viewBox="0 0 11072.97 1074.31"
 xmlns:xlink="http://www.w3.org/1999/xlink">
 <defs>
  <style type="text/css">
   <![CDATA[
    .fil0 {fill:black}
   ]]>
  </style>
 </defs>
 <g id="Layer_x0020_1">
  <metadata id="CorelCorpID_0Corel-Layer"/>
  <g>
   <path class="fil0" d="M669.8 565.97c-8.68,205.9 -155.9,352.78 -354.52,352.78l-153.82 0 0 -755.56 155.9 1.74c212.51,2.77 361.81,177.42 352.44,401.04l0 0zm163.2 -39.59c-7.29,-272.22 -218.4,-490.97 -515.63,-490.97l-317.36 0 0 1008.69 317.36 -0c331.95,0 523.27,-237.85 515.63,-517.71l0 0zm1012.5 14.24c0,106.61 -41.31,202.44 -118.75,277.09 -78.83,76.04 -178.13,115.98 -286.12,115.98 -109.03,0 -207.29,-39.93 -286.11,-115.98 -77.44,-76.04 -118.75,-170.48 -118.75,-277.09 0,-106.59 41.31,-203.82 118.75,-279.86 76.04,-74.65 177.09,-114.59 286.11,-114.59 109.03,0 208.68,39.94 286.12,114.59 77.08,74.65 118.75,173.26 118.75,279.86l0 0zm-6.94 375c105.55,-98.95 162.85,-230.9 162.85,-375.35 0,-144.44 -55.91,-276.04 -162.85,-376.73 -105.91,-98.96 -249.66,-154.17 -397.92,-154.17 -148.27,0 -290.62,55.21 -396.53,154.17 -107.29,100.69 -164.58,232.29 -164.58,376.73 0,144.44 57.29,274.66 164.58,375.35 105.91,98.96 248.26,155.9 396.53,155.9 146.53,0 290.63,-55.2 397.92,-155.9l0 0zm356.94 4.52l0.7 -886.46 -152.09 0 -0.69 1009.73 437.85 0 0 -123.27 -285.77 0zm942.36 123.61c59.03,-20.13 93.76,-34.03 140.98,-73.26l0 -139.58c0,0 -81.59,55.9 -140.98,77.08 -58.33,20.83 -100.69,31.59 -153.82,31.59 -15.97,0 -33.33,-1.04 -52.09,-3.12 -81.94,-9.03 -129.86,-28.47 -196.53,-75 -54.86,-38.54 -84.37,-66.67 -117.01,-123.96 -31.25,-55.21 -39.24,-92.36 -44.44,-154.86 -13.19,-154.86 31.94,-273.96 161.46,-366.67 66.32,-47.57 114.59,-66.32 196.53,-75 17.36,-1.74 33.33,-2.77 48.26,-2.77 54.86,0 97.92,12.15 157.64,32.98 59.03,20.83 89.24,43.06 140.98,75.35l0 -132.99c-44.45,-37.5 -62.15,-47.57 -140.98,-78.82 -59.72,-23.61 -128.81,-34.03 -189.23,-34.03 -4.86,0 -10.07,0 -14.93,0.35 -79.52,2.43 -125.7,13.89 -198.61,44.79 -229.87,97.57 -347.92,293.75 -326.38,535.08 18.74,211.81 126.04,356.25 326.38,444.44 71.88,31.59 117.7,43.41 196.53,47.57 14.93,0.69 28.47,1.04 41.31,1.04 58.68,-0.34 102.43,-8.68 164.93,-30.21l0 0zm345.14 -887.16l363.89 0 0 -123.26 -522.92 0 0 1010.07 522.58 0 0 -121.88 -363.55 0 0 -346.88 354.16 0 0 -122.22 -354.16 0 0 -295.85zm891.32 776.39c-37.5,31.6 -69.79,46.53 -102.43,46.53 -47.92,0 -82.64,-33.68 -82.64,-80.2 0,-37.5 24.3,-60.77 68.75,-90.63 0,0 3.47,-2.08 6.59,-4.17 10.77,12.85 96.88,113.54 109.72,128.47l0 0zm-69.79 -227.43l-13.89 7.64c-7.98,-9.03 -25.35,-29.17 -25.35,-29.17 -10.42,-11.81 -15.63,-25 -15.63,-38.89 0,-27.78 19.44,-46.18 48.62,-46.18 29.86,0 48.61,17.01 48.61,44.79 0,24.31 -14.23,45.14 -42.36,61.8l0 0zm268.06 338.54l-91.67 -106.94c21.53,-21.18 41.32,-43.75 59.72,-70.49l5.21 -7.64 -52.78 -56.25c0,0 -48.26,61.46 -60.42,76.74 -14.24,-16.66 -81.6,-95.14 -94.44,-110.42 59.72,-37.5 87.5,-77.08 87.5,-126.74 0,-69.45 -51.39,-115.98 -127.78,-115.98 -76.04,0 -129.16,47.57 -129.16,115.98 0,34.03 11.46,62.85 35.76,90.28l11.81 13.19c-74.31,44.1 -111.46,94.79 -111.46,155.21 0,89.58 67.36,152.08 163.54,152.08 57.29,0 109.03,-21.53 154.17,-62.15 10.76,12.5 45.48,53.13 45.48,53.13l104.52 -0zm1242.02 -517.36l-487.16 0 0 123.96 322.92 0c-17.71,208.33 -167.02,275.35 -344.45,287.5 -8.33,0.7 -16.67,0.7 -24.65,0.7 -211.81,0 -376.39,-185.42 -380.56,-393.06 -4.51,-219.1 175.01,-407.98 401.74,-407.98l3.47 0c153.13,1.38 281.95,89.58 340.98,187.5l119.45 -63.54c-59.03,-147.92 -252.09,-256.6 -460.42,-261.46 -4.51,-0.35 -9.03,-0.35 -13.54,-0.35 -305.22,0 -555.21,249.65 -550.35,545.83 4.86,292.71 252.43,528.47 555.21,528.47l9.03 0c454.86,-7.29 538.55,-380.55 508.34,-547.57l0 0zm521.18 103.12l-271.18 0 135.41 -354.51 135.77 354.51zm168.4 413.2l168.06 0 -422.57 -1009.73 -98.96 0 -422.57 1010.07 168.05 0 113.2 -287.16 381.95 0 112.85 286.81zm744.1 -296.18c0,146.18 -120.49,176.74 -263.2,176.74l-102.08 0 0 -343.75 110.07 0c106.25,0 255.21,8.68 255.21,167.02l0 0zm-85.42 -447.92c0,155.9 -125.34,153.48 -256.59,156.94l-23.96 0 0 -299.65 25.35 0c19.44,-0.7 39.24,-1.04 58.68,-1.04 102.09,-0.35 196.53,16.31 196.53,143.75l0 0zm251.05 471.53c7.3,-119.79 -82.64,-246.18 -203.82,-275.35 68.75,-45.14 110.42,-104.52 111.45,-185.77 3.47,-234.03 -156.94,-271.53 -320.48,-276.04l-282.3 0 0 1010.07 325.7 0c207.99,0 357.3,-71.88 369.45,-272.92l0 0zm597.92 -23.61c0,146.18 -120.49,176.74 -263.2,176.74l-102.08 0 0 -343.75 110.07 0c106.25,0 255.21,9.03 255.21,167.02l0 0zm-85.41 -447.92c0,155.9 -125.35,153.48 -256.95,156.94l-23.61 0 0 -299.65 25 0c19.44,-0.7 39.23,-1.04 58.68,-1.04 102.43,-0.35 196.88,16.31 196.88,143.75l0 0zm251.04 471.53c7.29,-119.79 -82.64,-246.18 -203.82,-275.35 68.75,-45.14 110.41,-104.52 111.46,-185.77 3.47,-234.03 -156.95,-271.53 -320.49,-276.04l-282.29 0 0 1010.07 325.7 0c207.99,0 357.29,-71.88 369.45,-272.92l0 0zm559.38 -140.63l-271.18 0 135.42 -354.51 135.77 354.51zm168.4 413.2l168.06 0 -422.57 -1009.73 -98.96 0 -422.57 1010.07 168.06 0 113.19 -287.16 381.95 0 112.85 286.81zm1063.2 0.35l111.11 0 0 -1010.43 -147.57 0 0 753.47 -705.56 -753.47 -98.96 0 0 1010.08 148.96 0 0 -739.94 692.01 740.28zm768.06 -413.55l-271.19 0 135.42 -354.51 135.76 354.51zm336.46 413.2l-422.57 -1009.73 -98.96 0 -422.92 1009.73 168.06 0 113.19 -287.16 381.95 0 113.19 287.16 168.06 0z"/>
  </g>
 </g>
</svg>
