<svg width="150" height="66" viewBox="0 0 300 84" fill="none" xmlns="http://www.w3.org/2000/svg">
<g clip-path="url(#clip0_3_19)">
<path d="M0.91001 1.63991H39.8584C73.3468 1.63991 86.451 21.3189 86.451 42.1518C86.451 63.3492 69.6461 82.2386 37.6744 82.2386H0.970677C0.303337 82.2386 0.0606673 81.8135 0.0606673 81.449C0.0606673 81.0239 0.485339 80.6594 1.09201 80.6594H7.94742C10.0708 80.6594 11.4661 79.3839 11.4661 77.0152V6.98482C11.4661 5.22343 10.6168 3.27983 7.82609 3.27983H0.849343C0.303337 3.27983 0 2.9154 0 2.49024C0 2.12581 0.121335 1.63991 0.91001 1.63991ZM25.2376 78.4729C25.2376 80.2343 26.0263 80.7809 27.179 80.7809H37.4924C62.912 80.7809 72.1335 61.2842 72.1335 41.7267C72.1335 22.1692 62.366 3.21909 40.8898 3.21909H26.8756C25.4196 3.21909 25.2983 4.43384 25.2983 4.98048L25.2376 78.4729ZM90.3337 1.63991C89.727 1.63991 89.181 1.88286 89.181 2.36876C89.181 2.85466 89.4843 3.15835 90.0303 3.15835H96.8857C98.4631 3.15835 99.9798 4.25163 99.9798 7.2885V77.0759C99.9798 78.5336 98.8878 80.7202 96.9464 80.7202H90.1517C89.363 80.7202 89.3023 81.3276 89.3023 81.5705C89.3023 81.8135 89.2417 82.2386 90.1517 82.2386H123.155C123.64 82.2386 124.307 82.1779 124.307 81.692C124.307 81.2061 124.186 80.7202 123.337 80.7202H116.967C116.057 80.7202 113.569 80.1735 113.569 77.3796V6.55965C113.569 4.55531 114.843 3.21909 117.149 3.21909H123.397C123.943 3.21909 124.247 2.9154 124.247 2.49024C124.247 2.06508 123.943 1.70065 123.215 1.70065H90.3337V1.63991ZM141.901 41.9696C141.901 19.679 151.85 1.63991 170.536 1.63991C188.857 1.63991 199.171 19.679 199.171 41.9696C199.171 64.2603 189.767 82.2993 170.536 82.2993C151.911 82.3601 141.901 64.2603 141.901 41.9696ZM170.536 84C197.108 84 213.852 65.1714 213.852 42.0304C213.852 18.8894 197.29 0 170.536 0C143.842 0 127.219 18.8286 127.219 41.9696C127.219 65.1106 144.51 84 170.536 84ZM298.787 81.7527C288.352 82.846 282.588 65.718 277.31 57.5792C273.367 51.5662 264.995 45.4317 256.744 44.2169C270.334 43.4273 285.561 39.0542 285.561 23.6269C285.561 11.115 277.856 1.63991 249.585 1.63991H217.007C216.582 1.63991 216.158 1.88286 216.158 2.36876C216.158 2.85466 216.582 3.15835 217.007 3.15835H224.469C226.047 3.15835 227.563 4.25163 227.563 7.2885V77.0759C227.563 78.5336 226.471 80.7202 224.53 80.7202H217.189C216.582 80.7202 216.34 81.2061 216.34 81.449C216.34 81.692 216.582 82.2386 217.189 82.2386H251.769C252.255 82.2386 252.679 81.9957 252.679 81.5098C252.679 81.0239 252.376 80.7202 251.709 80.7202H244.732C243.822 80.7202 241.335 80.1128 241.335 77.3796V44.3991H244.914C262.022 44.3991 263.296 62.9848 271.79 73.6139C279.07 82.7245 288.595 83.8785 293.994 83.8785C296.299 83.8785 297.877 83.8178 299.333 83.4534C300.243 83.1497 300.425 81.5705 298.787 81.7527ZM244.793 3.15835H249.828C258.443 3.15835 272.396 6.55965 272.396 22.8373C272.396 37.7787 260.02 42.82 248.554 42.82H241.213V6.55965C241.213 4.49458 242.487 3.15835 244.793 3.15835Z" fill="black"/>
</g>
<defs>
<clipPath id="clip0_3_19">
<rect width="300" height="84" fill="white"/>
</clipPath>
</defs>
</svg>
