<svg width="150" height="45" viewBox="0 0 300 45" fill="none" xmlns="http://www.w3.org/2000/svg">
<path d="M110.998 16.7143H113.881V9.64286L119.648 0.321429H116.284L112.44 6.75L108.756 0.482143L108.596 0.160714H105.232L110.998 9.48214V16.7143ZM26.1078 16.7143H38.1207V13.8214H28.9909V9.48214H37.1596V6.58929H28.9909V2.89286H38.1207V0H26.1078V16.7143ZM0 16.7143H2.88307V9.48214H10.5713V6.75H2.88307V3.05357H11.3721V0.160714H0V16.7143ZM80.5659 3.05357H85.3711V16.5536H88.2541V3.05357H93.0593V0.160714H80.5659V3.05357ZM55.8996 11.5714V0.321429H53.0165V16.7143H55.8996L63.2675 5.46429V16.7143H66.1506V0.321429H63.2675L55.8996 11.5714ZM296.636 0.321429L292.792 6.75L289.108 0.482143L288.948 0.160714H285.585L291.351 9.48214V16.5536H294.234V9.64286L300 0.321429H296.636ZM260.758 3.05357H265.563V16.5536H268.446V3.05357H273.251V0.160714H260.758V3.05357ZM243.78 10.6071C243.806 11.071 243.731 11.5349 243.56 11.9669C243.39 12.3989 243.128 12.7888 242.793 13.1095C242.458 13.4303 242.058 13.6744 241.62 13.8251C241.182 13.9757 240.717 14.0293 240.256 13.9821C239.796 14.0293 239.33 13.9757 238.892 13.8251C238.454 13.6744 238.054 13.4303 237.719 13.1095C237.384 12.7888 237.123 12.3989 236.952 11.9669C236.782 11.5349 236.707 11.071 236.733 10.6071V0.321429H233.849V10.6071C233.814 11.4536 233.956 12.2981 234.268 13.0856C234.579 13.873 235.053 14.5857 235.657 15.1772C236.262 15.7686 236.984 16.2255 237.776 16.5181C238.569 16.8106 239.414 16.9322 240.256 16.875C241.095 16.9173 241.934 16.7854 242.719 16.4875C243.505 16.1895 244.221 15.7321 244.823 15.1437C245.424 14.5554 245.898 13.8487 246.215 13.0681C246.531 12.2875 246.684 11.4497 246.663 10.6071V0.321429H243.78V10.6071ZM163.534 8.03571C163.985 7.66523 164.347 7.19922 164.597 6.67123C164.846 6.14324 164.975 5.56638 164.976 4.98214C165.006 4.33426 164.895 3.68765 164.651 3.08692C164.407 2.4862 164.037 1.94565 163.565 1.50258C163.093 1.05951 162.531 0.724457 161.917 0.520538C161.303 0.316619 160.653 0.248687 160.011 0.321429H152.963V16.7143H160.171C160.849 16.7583 161.53 16.662 162.169 16.4314C162.809 16.2008 163.395 15.8408 163.891 15.3737C164.386 14.9067 164.781 14.3424 165.05 13.716C165.32 13.0896 165.458 12.4144 165.456 11.7321C165.463 11.0051 165.29 10.2878 164.955 9.64322C164.62 8.99865 164.132 8.44662 163.534 8.03571ZM155.846 3.05357H160.011C161.452 3.05357 162.093 3.53571 162.093 4.82143C162.096 5.06849 162.048 5.31349 161.95 5.54037C161.853 5.76724 161.708 5.97084 161.527 6.1378C161.345 6.30476 161.131 6.4313 160.897 6.50911C160.663 6.58692 160.416 6.61425 160.171 6.58929H155.846V3.05357ZM160.171 13.8214H155.846V9.48214H160.171C161.773 9.48214 162.573 10.125 162.573 11.5714C162.577 11.8816 162.515 12.1891 162.394 12.4742C162.272 12.7594 162.092 13.016 161.866 13.2276C161.64 13.4393 161.373 13.6014 161.081 13.7037C160.789 13.8059 160.479 13.846 160.171 13.8214ZM192.205 13.8214H183.075V9.48214H191.244V6.58929H183.075V2.89286H192.205V0H180.192V16.3929H192.205V13.8214ZM217.031 16.5536L220.235 16.7143L214.309 0.642857L214.148 0.321429H211.426L205.339 16.3929L205.179 16.7143H208.222L209.824 12.2143H215.27L217.031 16.5536ZM211.105 9.32143L212.867 4.5L214.629 9.32143H211.105Z" fill="black"/>
<path d="M66.3107 33.75H72.3972C73.0584 33.839 73.6653 34.1643 74.1067 34.6661C74.548 35.168 74.7941 35.8128 74.7998 36.4821C74.8109 37.0224 74.6443 37.5513 74.3259 37.987C74.0074 38.4228 73.5548 38.7411 73.0379 38.8929C73.6489 39.0315 74.192 39.381 74.5725 39.8803C74.953 40.3796 75.1468 40.997 75.1201 41.625C75.1201 42.124 75.0043 42.6162 74.7819 43.0625C74.5595 43.5088 74.2366 43.897 73.8388 44.1964C73.0379 44.8393 72.2371 44.8393 70.4752 44.8393H66.1506V33.75H66.3107ZM67.7523 35.0357V38.4107H70.1548C71.9167 38.4107 72.5574 38.4107 73.1981 37.6071C73.3757 37.314 73.4852 36.9844 73.5184 36.6429C73.5184 35.0357 71.9167 35.0357 71.4362 35.0357H67.7523ZM67.7523 39.6964V43.5536H71.1159C71.6023 43.6113 72.0954 43.5563 72.5574 43.3929C72.9538 43.3147 73.3061 43.089 73.5438 42.7612C73.7814 42.4333 73.8867 42.0275 73.8388 41.625C73.8694 41.248 73.7764 40.8713 73.574 40.5521C73.3716 40.233 73.0709 39.989 72.7176 39.8571C71.9845 39.6771 71.2263 39.6228 70.4752 39.6964H67.7523Z" fill="black"/>
<path d="M89.2152 39.6964V44.8393H87.7736V39.6964L83.7693 33.75H85.5312L88.4143 38.4107L91.4575 33.75H93.2194L89.2152 39.6964Z" fill="black"/>
<path d="M116.765 40.1786V45H115.323V33.75H119.487C120.649 33.5851 121.832 33.8112 122.851 34.3929C123.22 34.7085 123.512 35.1039 123.706 35.5493C123.9 35.9947 123.991 36.4785 123.972 36.9643C124.005 37.3339 123.965 37.7064 123.854 38.0603C123.743 38.4142 123.563 38.7426 123.324 39.0264C123.086 39.3103 122.794 39.544 122.466 39.7141C122.137 39.8843 121.778 39.9875 121.41 40.0179L124.613 44.8393H122.851L119.808 40.0179H116.765V40.1786ZM116.765 38.8929H119.648C120.081 38.9271 120.517 38.8724 120.929 38.7322C121.332 38.6422 121.693 38.419 121.955 38.0984C122.216 37.7778 122.362 37.3784 122.371 36.9643C122.397 36.6647 122.353 36.3631 122.242 36.0838C122.13 35.8046 121.955 35.5556 121.73 35.3572C121.062 34.9365 120.268 34.7658 119.487 34.875H116.604V38.8929H116.765Z" fill="black"/>
<path d="M135.985 33.75V45H134.544V33.75H135.985Z" fill="black"/>
<path d="M154.725 39.6964H148.639V44.8393H147.197V33.5893H148.639V38.4107H154.725V33.5893H156.167V44.8393H154.725V39.6964Z" fill="black"/>
<path d="M172.985 41.4643H168.66L167.379 44.8393H165.777L170.101 33.5893H171.703L175.707 44.8393H174.106L172.985 41.4643ZM172.504 40.1786L170.902 35.5179L169.14 40.1786H172.504Z" fill="black"/>
<path d="M194.127 33.75V45H192.846L186.759 35.8393L186.919 45H185.478V33.75H186.919L193.006 42.75V33.75H194.127Z" fill="black"/>
<path d="M214.148 33.75V45H212.867L206.781 35.8393L206.941 45H205.499V33.75H206.941L213.027 42.75V33.75H214.148Z" fill="black"/>
<path d="M230.806 41.4643H226.482L225.2 44.8393H223.599L227.923 33.5893H229.525L233.529 44.8393H231.927L230.806 41.4643ZM230.326 40.1786L228.724 35.5179L226.962 40.1786H230.326Z" fill="black"/>
</svg>
