<?xml version="1.0" encoding="UTF-8"?>
<!DOCTYPE svg PUBLIC "-//W3C//DTD SVG 1.1//EN" "http://www.w3.org/Graphics/SVG/1.1/DTD/svg11.dtd">
<!-- Creator: CorelDRAW 2019 (64-Bit) -->
<svg xmlns="http://www.w3.org/2000/svg" xml:space="preserve" width="150" height="66" version="1.1" style="shape-rendering:geometricPrecision; text-rendering:geometricPrecision; image-rendering:optimizeQuality; fill-rule:evenodd; clip-rule:evenodd"
viewBox="0 0 11266.62 1237.36"
 xmlns:xlink="http://www.w3.org/1999/xlink">
 <defs>
  <style type="text/css">
   <![CDATA[
    .fil0 {fill:black}
   ]]>
  </style>
 </defs>
 <g id="Layer_x0020_1">
  <metadata id="CorelCorpID_0Corel-Layer"/>
  <g id="GIORGIO_ARMANI_bold_k.svg">
   <g>
    <path class="fil0" d="M11266.62 91.59l0 -41.33 -583.58 0 0 41.33 90.62 0 0 795.63 -543.87 -836.8 -253.05 0 0 41.34 90.29 0 0 1066.66 -156.59 0 -394.25 -1158.42 -407.05 1158.42 -150.92 0 0 -1066.66 90.78 0 0 -41.34 -239.27 0 -301.68 874.08 -316.44 -874.08 -234.73 0 0 41.34 90.45 0 0 1066.66 -179.61 0c-50.9,0 -95.32,-45.39 -95.32,-122.39l0 -168.27c0,-128.87 -41.82,-236.84 -170.86,-273.48 112.34,-34.04 190.64,-141.36 190.64,-256.13 0,-163.4 -121.91,-287.74 -357.61,-287.74l-354.36 0 0 41.34 90.29 0 0 1066.66 -182.53 0 -394.25 -1158.42 -407.05 1158.42 -80.24 0 0 41.34 227.44 0 0 -41.34 -100.51 0 113.48 -323.4 369.77 0 108.29 323.4 -138.92 0 0 41.34 772.44 0 0 -41.34 -139.9 0 0 -543.71 93.86 0c136.98,0 205.88,56.09 205.88,189.18l0 98.56c0,234.41 154.33,297.31 238.46,297.31l330.7 0 0 -41.34 -98.56 0 0 -944.6 371.07 998.26 350.64 -1027.92 0 974.26 -90.46 0 0 41.34 536.42 0 0 -41.34 -100.51 0 113.64 -323.4 369.77 0 108.29 323.4 -138.92 0 0 41.34 591.04 0 0 -41.34 -91.43 0 0 -1007.66 706.63 1086.61 0 -1145.61 213.17 0 0 1066.66 -90.62 0 0 41.34 329.08 0 0 -41.34 -90.62 0 0 -1066.66 90.62 -0.17zm-4906.18 702.74l173.46 -503.83 169.4 503.83 -342.86 0zm1051.75 -220.95l-93.86 0 0 -481.62 77.81 0c137.95,0 230.51,88.67 230.51,252.72 0,90.13 -70.52,228.9 -214.47,228.9zm1870.56 220.95l173.46 -503.83 169.4 503.83 -342.86 0z"/>
    <g>
     <path class="fil0" d="M5082.39 22.69c-303.14,0 -499.13,336.37 -499.13,603.04 0,291.31 212.36,601.42 499.13,601.42 286.61,0 499.13,-291.47 499.13,-601.42 0,-266.83 -212.04,-603.04 -499.13,-603.04zm0 1164.74c-290.34,0 -306.71,-380.63 -306.71,-561.7 0,-179.62 21.56,-561.7 306.71,-561.7 284.66,0 308.49,382.09 308.49,561.7 0,179.77 -18.65,561.7 -308.49,561.7z"/>
     <polygon class="fil0" points="4207.34,91.59 4297.95,91.59 4297.95,1158.25 4207.34,1158.25 4207.34,1199.59 4536.41,1199.59 4536.41,1158.25 4445.8,1158.25 4445.8,91.59 4536.41,91.59 4536.41,50.25 4207.34,50.25 "/>
     <path class="fil0" d="M3188.81 1168.14c-50.57,0 -95.32,-46.85 -95.32,-124.01l0 -176.37c0,-130.17 -41.82,-236.84 -170.86,-273.48 112.34,-34.04 190.8,-141.36 190.8,-256.13 0,-163.4 -121.91,-287.74 -357.61,-287.74l-354.2 0 0 41.34 90.29 0 0 1066.66 -90.29 0 0 41.34 378.03 0 0 -41.34 -139.9 0 0 -543.71 93.86 0c136.82,0 205.87,56.57 205.87,189.18l0 110.07c0,234.4 154.33,297.3 238.46,297.3 53.66,0 78.62,-16.86 103.26,-39.55l-24.31 -33.56c-31.94,27.24 -53.17,29.99 -68.09,29.99zm-455.36 -594.77l-93.86 0 0 -481.62 77.81 0c137.95,0 230.52,88.67 230.52,252.72 0.16,90.13 -70.52,228.9 -214.47,228.9z"/>
     <path class="fil0" d="M1857.91 22.69c-303.14,0 -499.13,336.37 -499.13,603.04 0,291.31 212.36,601.42 499.13,601.42 286.61,0 499.13,-291.47 499.13,-601.42 0,-266.83 -212.2,-603.04 -499.13,-603.04zm0 1164.74c-290.33,0 -306.87,-380.63 -306.87,-561.7 0,-179.62 21.72,-561.7 306.87,-561.7 284.66,0 308.33,382.09 308.33,561.7 0,179.77 -18.48,561.7 -308.33,561.7z"/>
     <polygon class="fil0" points="982.86,91.59 1073.48,91.59 1073.48,1158.25 982.86,1158.25 982.86,1199.59 1311.94,1199.59 1311.94,1158.25 1221.32,1158.25 1221.32,91.59 1311.94,91.59 1311.94,50.25 982.86,50.25 "/>
     <path class="fil0" d="M611.96 749.74l106.5 0 0 208.31c0,107.8 -81.87,229.38 -225.66,229.38 -273.15,0 -300.38,-345.61 -300.38,-561.7 0,-196.8 20.91,-561.7 321.95,-561.7 114.29,0 240.73,101.97 266.67,327.46l36.96 0 0 -364.09 -36.48 0c-6.65,39.23 -27.23,56.09 -67.76,56.09 -40.2,0 -88.84,-60.95 -200.37,-60.95 -339.94,0 -513.4,360.53 -513.4,603.04 0,255.32 192.75,601.41 492.81,601.41 163.4,0 177.67,-97.42 276.56,-97.42 30.48,0 51.22,28.69 55.11,69.87l41.99 0 0 -449.85 90.62 0 0 -41.34 -344.96 0 0 41.5 -0.16 0z"/>
     <path class="fil0" d="M3836.6 749.74l106.5 0 0 208.31c0,107.8 -81.87,229.38 -225.66,229.38 -273.15,0 -300.38,-345.61 -300.38,-561.7 0,-196.8 20.91,-561.7 321.95,-561.7 114.29,0 240.73,101.97 266.67,327.46l36.96 0 0 -364.09 -36.48 0c-6.65,39.23 -27.23,56.09 -67.76,56.09 -40.2,0 -88.84,-60.95 -200.2,-60.95 -339.94,0 -513.4,360.53 -513.4,603.04 0,255.32 192.75,601.41 492.81,601.41 163.4,0 177.67,-97.42 276.56,-97.42 30.48,0 51.22,28.69 55.11,69.87l41.99 0 0 -449.85 90.62 0 0 -41.34 -344.96 0 0 41.5 -0.32 0z"/>
    </g>
   </g>
  </g>
 </g>
</svg>
