<svg width="150" height="87" viewBox="0 0 300 87" fill="none" xmlns="http://www.w3.org/2000/svg">
<path fill-rule="evenodd" clip-rule="evenodd" d="M127.042 68.9913V66.6081H130.317C131.217 66.6081 132.007 66.6892 132.007 67.7936C132.007 68.9096 131.217 68.9913 130.317 68.9913H127.042ZM125.475 73.8145H127.042V70.463H129.972C131.335 70.463 133.576 70.463 133.576 67.8079C133.576 65.1487 131.335 65.1487 129.972 65.1487H125.475V73.8145Z" fill="black"/>
<path fill-rule="evenodd" clip-rule="evenodd" d="M138.652 70.3734L140.337 66.4966L142.025 70.3734H138.652ZM135.463 73.8148H137.137L137.995 71.8307H142.647L143.491 73.8148H145.155L141.238 65.1435H139.437L135.463 73.8148Z" fill="black"/>
<path fill-rule="evenodd" clip-rule="evenodd" d="M150.653 68.9915V66.5422H153.712C155 66.5422 155.659 66.7479 155.659 67.7666C155.659 68.7866 155 68.9915 153.712 68.9915H150.653ZM149.084 73.8148H150.653V70.3903H153.157L155.512 73.8148H157.447L154.98 70.2759C156.166 70.2132 157.226 69.3268 157.226 67.7263C157.226 65.6074 155.859 65.1442 153.942 65.1442H149.084V73.8148Z" fill="black"/>
<path fill-rule="evenodd" clip-rule="evenodd" d="M162.15 73.8151H163.719V65.1439H162.15V73.8151Z" fill="black"/>
<path fill-rule="evenodd" clip-rule="evenodd" d="M174.877 67.7749C174.626 67.0118 173.971 66.3407 172.054 66.3407C170.983 66.3407 169.912 66.6317 169.912 67.4227C169.912 67.7933 170.114 68.1845 171.722 68.3909L173.624 68.7077C175.435 69.0047 176.496 69.7515 176.496 71.2021C176.496 73.2399 174.681 74.0193 172.533 74.0193C169.072 74.0193 168.227 72.1709 168.041 71.5155L169.555 71.0092C169.846 71.6388 170.445 72.5552 172.574 72.5552C173.866 72.5552 174.928 72.1 174.928 71.3526C174.928 70.7939 174.324 70.4301 173.172 70.2755L171.245 69.9893C169.384 69.7195 168.347 68.8433 168.347 67.5297C168.347 64.9474 171.477 64.9474 172.095 64.9474C175.571 64.9474 176.16 66.6651 176.366 67.2565L174.877 67.7749Z" fill="black"/>
<path fill-rule="evenodd" clip-rule="evenodd" d="M235.407 51.5349C236.071 57.5388 238.983 56.6449 239.13 57.1702C239.13 57.1702 227.892 57.1545 227.887 57.1327C227.831 56.9195 231.117 57.0673 230.457 51.7884L227.53 28.3425C227.414 27.7245 227.414 27.0208 227.087 27.1761C226.86 27.2906 217.177 52.5079 217.177 52.5079C217.037 52.9194 216.795 53.1817 216.478 52.5815C216.252 52.1475 207.428 31.2368 207.428 31.2368C206.99 30.1895 206.216 28.5149 206.09 28.2206C205.859 27.7 205.517 27.6346 205.542 29.3904L203.243 53.1572C202.705 57.3017 206.336 56.9856 206.292 57.2444H198.309C198.208 57.0428 200.98 57.4318 201.592 53.0754L204.213 26.8463C204.019 21.7608 200.714 22.0334 200.714 21.6083H209.078L209.199 21.8916L218.087 42.7628C218.214 43.0081 218.29 43.1389 218.354 43.2807C218.615 43.8802 218.585 44.2978 218.888 43.5007L227.6 21.581L235.65 21.6083C235.7 21.9162 232.414 21.7608 232.414 26.1146L235.407 51.5349Z" fill="black"/>
<path fill-rule="evenodd" clip-rule="evenodd" d="M51.8288 55.9954L47.2813 56.0036C45.7013 55.9382 43.8028 56.2571 43.8028 54.2314V26.6445C43.8028 22.3801 48.2014 22.3664 48.4886 22.0305H34.9567C34.7631 22.3337 39.0944 22.4509 39.0944 26.7998V53.4132C39.0259 56.9309 34.4262 57.0127 34.4262 57.2198H58.393L59.7285 49.5978C59.2157 49.5487 59.5802 55.8865 51.8288 55.9954Z" fill="black"/>
<path fill-rule="evenodd" clip-rule="evenodd" d="M102.894 53.5436C103.357 57.9307 106.458 56.814 106.461 57.2358L97.7707 57.2446C97.7959 56.8222 101.251 57.2275 101.193 53.2766V52.8766V26.5378C101.259 21.9238 97.5193 21.9163 97.4232 21.5559H106.131L124.172 45.6205L124.119 26.0908C123.998 21.3679 120.646 21.7058 120.593 21.4578H129.693C129.658 21.6901 126.093 21.7766 125.912 26.0908L125.883 56.3309C125.883 56.3309 126.2 58.6263 124.899 56.814C124.331 56.0256 103.218 27.2273 103.218 27.2273C103.022 26.9875 102.931 27.2573 102.917 27.9645L102.894 53.1457V53.5436Z" fill="black"/>
<path fill-rule="evenodd" clip-rule="evenodd" d="M91.2108 52.748L79.0778 21.7611C78.1949 20.6968 77.8932 21.9076 77.8932 21.9076C76.6935 24.8856 65.6113 53.6146 65.6113 53.6146C64.0999 57.4484 62.1379 56.9933 62.1379 57.2522H69.9778C69.9778 56.8297 65.742 57.5308 67.1938 53.541L71.3887 42.4756C71.8267 41.7806 71.8544 41.5708 72.8901 41.5708C74.6284 41.5708 79.9232 41.5571 80.7301 41.5571C81.691 41.5571 81.7362 41.5571 82.151 42.5832L86.1178 53.0402C87.2748 57.2277 83.741 56.9933 83.7913 57.2522H94.9332C95.0337 56.887 93.2332 58.0868 91.2108 52.748ZM73.6474 39.8586C72.7694 39.8586 72.8876 39.3101 73.2275 38.4319C73.2275 38.4319 76.1876 30.4917 76.5401 29.5208C76.9926 28.2855 77.4804 28.5315 77.8153 29.6025L80.7954 38.5763C81.0902 39.569 81.4546 39.8586 80.4585 39.8586C79.6712 39.8606 73.944 39.8586 73.6474 39.8586Z" fill="black"/>
<path fill-rule="evenodd" clip-rule="evenodd" d="M193.766 19.8659L180.435 12.7869L167.121 19.8659L180.435 15.4781L193.766 19.8659Z" fill="black"/>
<path fill-rule="evenodd" clip-rule="evenodd" d="M180.51 20.9424C170.133 20.9424 163.433 29.8481 163.433 39.3158C163.433 48.7822 170.048 57.228 180.425 57.228C190.813 57.228 197.613 48.7822 197.613 39.3158C197.613 29.8481 190.898 20.9424 180.51 20.9424ZM180.435 55.8974C180.4 55.8974 180.365 55.9035 180.33 55.9035H180.325C173.952 55.9035 169.741 49.4513 169.741 39.3921C169.741 27.8716 174.047 22.2928 180.42 22.2928H180.435C186.804 22.3003 191.14 27.8797 191.14 39.3921C191.14 49.3975 186.753 55.8238 180.435 55.8974Z" fill="black"/>
<path fill-rule="evenodd" clip-rule="evenodd" d="M148.867 55.8152C156.368 55.6851 159.721 50.0724 160.394 49.8189C160.727 49.7017 156.738 57.1705 148.771 57.1705C130.888 57.1705 131.202 39.7243 131.202 39.7243C131.755 27.4658 140.967 20.16 149.788 21.1643C152.152 21.4341 153.189 21.834 154.924 22.4369C155.738 22.715 157.935 24.0026 158.81 23.6484C159.423 23.4018 159.871 22.0146 160.022 21.924L160.108 31.4898C159.479 31.4898 157.512 22.2926 148.994 22.2926C142.018 22.2926 136.72 30.8841 136.833 39.2855C137.019 53.3393 146.121 55.8698 148.867 55.8152Z" fill="black"/>
<path fill-rule="evenodd" clip-rule="evenodd" d="M250.844 39.643L250.855 48.4287V53.0399C250.881 55.7005 250.658 56.0254 252.264 56.0364L261.117 56.0255C263.275 55.8811 264.663 55.2842 265.559 54.5258C267.596 52.7864 267.123 50.179 267.536 50.0863L267.33 57.228H242.454C242.354 56.9691 246.151 57.6532 246.151 51.7964V47.1744V27.1569C246.151 21.2948 242.651 22.1805 242.696 21.7199H267.33L267.541 28.7689C267.047 28.7281 268.351 23.2468 261.027 22.7644H252.847C251.43 22.7644 250.855 22.778 250.855 25.69L250.844 33.2787L250.876 34.969C250.876 36.267 250.895 36.3875 252.59 36.3875H260.498C264.482 36.3875 263.944 32.5156 264.296 32.5156C264.311 32.5156 264.296 41.6855 264.296 41.6855C263.944 41.6855 264.467 37.4368 260.679 37.5683H252.681C250.926 37.5349 250.876 38.2115 250.876 39.5122L250.844 39.643Z" fill="black"/>
</svg>
