<?xml version="1.0" encoding="UTF-8"?>
<!DOCTYPE svg PUBLIC "-//W3C//DTD SVG 1.1//EN" "http://www.w3.org/Graphics/SVG/1.1/DTD/svg11.dtd">
<!-- Creator: CorelDRAW 2019 (64-Bit) -->
<svg xmlns="http://www.w3.org/2000/svg" xml:space="preserve" width="150" height="66" version="1.1" style="shape-rendering:geometricPrecision; text-rendering:geometricPrecision; image-rendering:optimizeQuality; fill-rule:evenodd; clip-rule:evenodd"
viewBox="0 0 14735.48 1121.06"
 xmlns:xlink="http://www.w3.org/1999/xlink">
 <defs>
  <style type="text/css">
   <![CDATA[
    .fil0 {fill:#252426;fill-rule:nonzero}
   ]]>
  </style>
 </defs>
 <g id="Layer_x0020_1">
  <metadata id="CorelCorpID_0Corel-Layer"/>
  <g id="_1787270173712">
   <path class="fil0" d="M4580.93 382.21l0 9.75 1.6 21.11c0,100.23 517.15,102.63 517.15,295.05 0,128.83 -155.15,196.71 -368.69,196.71 -154.87,0 -293.71,-22.58 -418.24,-184.96l230.76 -37c22.32,61.07 85.67,134.69 187.48,134.69 70.55,0 120.14,-17.76 127.22,-48.22 0.13,-2.02 3.35,-10.31 4.54,-19.79 1.32,-12.29 0.4,-22.17 0.4,-23.65 0,-124.29 -509.8,-94.63 -509.8,-311.76 -0.67,-122.79 159.02,-190.55 367.48,-187.88 132.57,1.47 241.07,26.46 374.96,179.47l-214.07 29.12c-22.58,-60.8 -59.45,-121.47 -160.89,-121.47 -70.82,0 -103.55,12.45 -135.09,48.12 -0.94,0.8 -4.54,11.48 -4.81,20.71z"/>
   <path class="fil0" d="M-0 892.84l0 -648.23 248.15 0 0 95.4c93.93,-47.7 181.74,-107.3 288.09,-107.3 155.81,0 237.59,46.65 237.59,167.29l0 492.83 -256.03 0 0 -476.24c0,-42.76 -24.45,-71.37 -94.2,-71.37 -52.91,0 -112.24,29.81 -167.29,58.27l0 489.34 -256.31 0z"/>
   <path class="fil0" d="M5254.11 478.75c0,-171.84 150.73,-246 408.11,-246 256.16,0 407.41,74.17 407.41,246l0 180.12c0,172.25 -151.25,245.88 -407.41,245.88 -257.38,0 -408.11,-73.63 -408.11,-245.88l0 -180.12zm256.71 239.72c0,50.24 61.32,97.56 151.4,97.56 89.26,0 149.78,-47.32 149.78,-97.56l0 -309.48c0,-50.37 -60.52,-103.42 -149.78,-103.42 -90.08,0 -151.4,53.06 -151.4,103.42l0 309.48z"/>
   <path class="fil0" d="M9191.75 892.84l0 -83.65 -4.54 0c-44.24,40.62 -159.02,95.67 -273.27,95.67 -199,0 -280.63,-90.61 -280.63,-258.03l0 -156.35c0,-167.05 81.63,-257.78 280.63,-257.78 69.35,0 134.56,24.6 257.23,77.11l0 -277.28 256.31 0 0 860.3 -235.72 0zm-20.58 -501.12c-50.92,-32.33 -97.55,-46.5 -155.27,-46.5 -69.35,0 -126.58,25.92 -126.58,155.15l0 137.21c0,128.85 57.22,154.89 126.58,154.89 57.72,0 104.35,-14.42 155.27,-46.5l0 -354.25z"/>
   <path class="fil0" d="M11870.18 364.06c-20.58,-2.27 -59.47,-9.48 -79.51,-9.48 -26.59,0 -53.31,8.28 -87.67,14.57 15.77,42.76 32.33,74.97 32.33,114.38 0,161.16 -118.4,254.29 -370.41,254.29 -36.6,0 -67.48,-1.35 -106.5,-8.56 -13.89,12.03 -44.76,22.85 -44.76,38.1 0,81.52 644.21,-43.83 644.21,191.35 0,109.84 -195.89,162.36 -492.95,162.36 -273.9,0 -424.13,-45.56 -424.13,-117.05 0,-49.04 93.13,-78.71 154.47,-101.44 -61.34,-21.63 -106.23,-50.09 -106.23,-91.78 0,-51.46 92.06,-86.19 155.27,-108.91 -124.68,-47.7 -167.44,-117.05 -167.44,-224.35 0,-139.53 92.07,-247.08 380.04,-244.81 141.1,1.33 235.05,37.55 300.26,83.91 65.46,-47.43 117.32,-83.91 213,-83.91l0 131.35zm-380.05 60.12c-3.99,-77.09 -47.97,-122.79 -133.22,-122.79 -94.87,0 -132.7,44.35 -134.57,138.56 0,3.34 -0.4,78.06 -0.4,80.85 0,81.11 44.91,121.47 122.67,121.47 109.45,0 145.79,-23.76 145.79,-135.76 0,-3.61 0,-78.71 -0.28,-82.32zm-251.89 497.64c-26.45,15.37 -53.44,28.32 -53.44,52.24 0,33.41 83.78,47.7 235.45,47.7 120.92,0 192.69,-17.76 192.69,-51.3 0,-21.66 -16.44,-31.01 -94.07,-34.48l-280.63 -14.17z"/>
   <path class="fil0" d="M12791.08 244.68l0 648.23 -249.35 0 0 -79.24c-92.63,47.83 -180.29,91.13 -286.77,91.13 -157.16,0 -238.79,-46.5 -238.79,-166.9l0 -493.23 257.38 0 0 476.51c0,43.03 24.3,71.22 93.65,71.22 53.17,0 112.11,-29.39 166.08,-58.4l0 -489.34 257.8 0z"/>
   <path class="fil0" d="M13251.64 604.05l0 85.92c0,64.54 65.09,93 150.73,93 108.1,0 150.31,-40.34 150.31,-90.46l257.51 0c-12.68,133.62 -149.24,212.2 -407.82,212.2 -245.08,0 -407.58,-88.31 -407.58,-230.11l0 -211.52c0,-142.05 162.5,-230.51 407.58,-230.51 238.27,0 407.82,88.46 407.82,221.16l0 150.33 -558.55 0zm301.04 -96.87l0 -109.84c0,-57.33 -46.37,-93.15 -150.31,-93.15 -103.85,0 -150.73,35.82 -150.73,93.15l0 109.84 301.04 0z"/>
   <polygon class="fil0" points="13998.36,244.73 13998.36,341.35 14463.13,341.35 13957.63,764.13 13957.63,892.83 14735.48,892.83 14735.48,798.6 14222.19,798.6 14735.48,373.81 14735.48,244.73 "/>
   <path class="fil0" d="M1998.19 894.4l0 -648.35 247.75 0 0 89.91c93.93,-47.7 182.14,-101.81 288.49,-101.81 155.94,0 179.47,47.83 200.05,127.21l-218.49 56.4c0,-42.64 -24.57,-71.5 -93.92,-71.5 -53.06,0 -112.79,29.93 -167.85,58.65l0 489.49 -256.03 0z"/>
   <path class="fil0" d="M975.6 434.54c18.44,-144.32 205.12,-201.52 411.43,-201.52 272.62,0 376.57,80.85 376.57,196.71l0 410.78c0,17.91 6.41,35.8 14.57,52.91l-256.18 0c-6.27,-17.11 -10.15,-37.28 -18.44,-63.74 -75.76,44.23 -177.85,75.37 -306.53,75.37 -153.95,0 -253.91,-50.24 -253.91,-155.27 0,-150.2 243.76,-214.87 564.45,-269.93l0 -47.45c0,-2.52 -0.13,-55.05 -0.4,-56.92 -4.14,-51.57 -61.74,-71.22 -132.42,-71.22 -72.7,0 -134.71,29.68 -142.2,71.37 -0.4,2.8 -0.52,56.13 -0.52,58.93l-256.43 0zm531.97 117.2c-153.15,30.86 -308.42,105.15 -308.42,173.18 0,42.61 45.03,67.73 114.39,67.73 77.51,0 132.84,-10.55 194.03,-46.35l0 -194.56z"/>
   <path class="fil0" d="M3386.02 462.77l0 -28.34c0,-50.37 -17.51,-128.8 -151.25,-129.75 -137.26,-0.65 -150.08,79.38 -150.08,129.75l0 275.02c0,50.24 61.34,108.1 150.08,108.1 89.78,0 151.25,-76.57 151.25,-126.54l0 -40.34 257.36 0 0 2.12c0,171.84 -151.13,246 -408.61,246 -256.03,0 -407.31,-74.17 -407.31,-246l0 -180.26c0,-171.99 151.28,-246 407.31,-246 251.34,0 402.47,71.9 406.49,236.25l-255.24 0z"/>
   <path class="fil0" d="M3874.42 94.87l257.5 0 0 -94.87 -257.5 0 0 94.87zm0 800.58l257.5 0 0 -648.23 -257.5 0 0 648.23z"/>
   <path class="fil0" d="M7635.13 478.75c0,-171.84 151.11,-245.74 407.29,-245.74 257.38,0 407.31,73.9 407.31,245.74l0 180.12c0,172.25 -149.93,246.14 -407.31,246.14 -256.18,0 -407.29,-73.89 -407.29,-246.14l0 -180.12zm256.16 239.72c0,50.52 61.07,97.56 151.13,97.56 89.68,0 151.13,-47.05 151.13,-97.56l0 -309.48c0,-50.37 -61.45,-103.3 -151.13,-103.3 -90.06,0 -151.13,52.93 -151.13,103.3l0 309.48z"/>
   <path class="fil0" d="M6817.59 895.64l0 -648.1 249.75 0 0 89.81c93.8,-47.57 181.46,-101.83 285.97,-101.83 157.54,0 181.46,47.7 202.04,127.48l-219.68 56.41c0,-42.91 -23.8,-71.5 -92.88,-71.5 -52.91,0 -112.24,29.79 -167.57,58.26l0 489.49 -257.63 0z"/>
   <path class="fil0" d="M9651.2 895.64l0 -648.1 249.09 0 0 89.81c92.59,-47.57 180.54,-101.83 287.31,-101.83 156.87,0 180.1,47.7 201.08,127.48l-219.96 56.41c0,-42.91 -24.3,-71.5 -93.66,-71.5 -53.46,0 -112.38,29.79 -167.04,58.26l0 489.49 -256.83 0z"/>
   <path class="fil0" d="M10503.27 96.35l257.23 0 0 -95.15 -257.23 0 0 95.15zm0 797.09l257.23 0 0 -648.5 -257.23 0 0 648.5z"/>
  </g>
 </g>
</svg>
