<svg width="150" height="34" viewBox="0 0 300 34" fill="none" xmlns="http://www.w3.org/2000/svg">
<g clip-path="url(#clip0_3_17)">
<path fill-rule="evenodd" clip-rule="evenodd" d="M19.2017 19.8278C17.6614 23.2732 14.163 24.0287 10.9524 22.6615C8.69913 21.702 7.25253 20.0232 7.12011 17.5224C6.96512 14.6036 8.93053 12.0799 11.9379 11.3101C14.4525 10.6667 16.7236 11.0713 18.4919 13.0997C19.4917 14.2467 19.7153 15.6547 19.7861 17.5671C19.6702 18.036 19.5755 18.992 19.2017 19.8278ZM19.3072 6.82923C16.698 6.05166 14.0357 6.2123 11.3991 6.79276C10.124 7.07323 8.96527 7.63025 7.81346 8.45644C7.81346 8.11867 7.79218 7.8864 7.8178 7.6589C7.86903 7.20738 7.72055 7.0437 7.22257 7.05108C5.28321 7.08061 3.34298 7.06237 1.40275 7.06411C1.2369 7.06411 1.07062 7.07757 0.86874 7.08625V7.75051C0.86874 13.0211 0.867437 18.2917 0.869174 23.5615C0.870476 26.9957 0.87612 30.4298 0.880028 33.864H7.53343V25.7683C8.01013 26.09 8.32098 26.334 8.66266 26.5255C12.2944 28.5603 16.0819 28.6589 19.9159 27.2323C22.8873 26.1265 24.9764 24.0834 25.9823 21.0751C26.6831 18.979 26.736 16.8339 26.337 14.6783C25.5981 10.6841 23.2702 8.01056 19.3072 6.82923ZM41.2164 23.5415C37.3862 23.5385 34.9684 21.1467 34.9724 17.3648C34.9767 13.4891 37.3767 11.1104 41.2611 11.1326C42.9014 11.1367 44.473 11.7922 45.6301 12.9549C46.7872 14.1176 47.4351 15.6923 47.4313 17.3327C47.4369 20.7712 44.6614 23.5441 41.2164 23.5411V23.5415ZM46.6263 7.15919H53.637V27.5123H46.6498V26.1738C43.8182 28.1284 40.7696 28.83 37.4479 28.2734C34.1231 27.7159 31.4414 26.1538 29.6692 23.2815C27.0139 18.9773 27.7177 12.933 31.1991 9.48712C34.7145 6.00868 41.4938 4.87684 46.6263 8.52243V7.15919ZM74.4925 19.5742C76.4318 19.5473 78.3716 19.5543 80.3114 19.5551C80.3605 19.5551 80.4091 19.5781 80.535 19.6103C80.4182 21.6465 79.6767 23.3983 78.2996 24.8809C76.668 26.637 74.568 27.5449 72.2327 27.9625C68.9462 28.5504 65.6796 28.4978 62.4912 27.4263C58.3537 26.0357 55.7149 22.5747 55.454 18.287C55.2716 15.2935 55.935 12.5401 57.9126 10.19C59.535 8.26194 61.6984 7.20217 64.1509 6.69812C67.5807 5.99349 71.0054 5.95355 74.3375 7.14834C77.7959 8.38871 79.8525 10.8352 80.4742 14.4148C80.5085 14.6119 80.5064 14.8146 80.5233 15.0469H74.1265C73.9663 14.6848 73.82 14.2884 73.6229 13.9185C72.4698 11.7556 70.3567 10.7978 67.7644 11.2485C64.536 11.8103 62.6774 14.0696 62.6961 17.41C62.7122 20.212 64.1288 22.3715 66.5388 23.2667C69.6282 24.4142 72.8792 22.9802 74.0757 19.9576C74.1399 19.7957 74.3483 19.576 74.4925 19.5742ZM94.5538 23.9553C91.1501 23.9522 88.3229 21.0864 88.3307 17.647C88.3385 14.1647 91.1627 11.3223 94.6007 11.3375C98.0101 11.3522 100.793 14.1986 100.791 17.6687C100.789 21.115 97.9685 23.9583 94.5538 23.9553ZM103.695 9.11592C101.091 7.29247 98.1217 6.62822 95.6028 6.58177C93.3017 6.57438 91.6606 6.80275 90.0543 7.25731C84.755 8.75731 81.9113 12.3955 81.9547 17.611C81.9964 22.6281 84.6226 26.2276 89.4742 27.8266C93.3556 29.1061 97.2161 28.9142 101.011 27.4637C103.419 26.5433 105.399 25.0802 106.665 22.8139C107.76 20.8559 108.039 18.7372 107.855 16.5425C107.595 13.4614 106.286 10.9302 103.695 9.11592ZM149.891 23.5411C145.986 23.5333 143.599 21.1593 143.614 17.298C143.629 13.4618 146.022 11.1239 149.917 11.1395C153.335 11.153 156.073 13.9168 156.069 17.3501C156.065 20.7764 153.3 23.548 149.891 23.5411ZM155.266 8.50203C150.047 4.77308 143.085 6.12417 139.74 9.59045C136.335 13.1188 135.687 19.0333 138.306 23.2789C140.08 26.1534 142.762 27.7159 146.088 28.2734C149.411 28.83 152.459 28.124 155.291 26.1695V27.5088H162.265V7.17004H155.266V8.50246V8.50203ZM206.552 11.1469C203.124 11.1469 200.235 13.4258 200.235 17.3588C200.235 21.2939 203.124 23.5294 206.552 23.5294C209.978 23.5294 212.826 21.2935 212.826 17.3588C212.826 13.4253 209.978 11.1469 206.552 11.1469ZM211.996 8.53676V7.16396H219.001V27.5106H212.044V26.1625C209.18 28.1318 206.114 28.8391 202.774 28.2638C199.428 27.689 196.747 26.0952 194.989 23.1899C192.503 19.0806 193.06 13.2425 196.234 9.85572C198.28 7.67279 200.862 6.57091 203.839 6.31737C206.793 6.06556 209.497 6.7767 211.996 8.53676H211.996ZM240.888 6.80753C243.738 7.83256 245.148 10.3081 245.109 12.7902C245.035 17.499 245.087 22.2096 245.087 26.9192V27.5088H238.111C238.101 27.2957 238.083 27.0825 238.083 26.8698C238.081 22.9081 238.081 18.9465 238.081 14.9848C238.081 13.0116 237.372 12.0616 235.364 11.713C234.31 11.5307 233.18 11.5046 232.122 11.6596C230.099 11.9557 228.879 13.52 228.873 15.6009C228.861 19.3585 228.867 23.1161 228.866 26.8737V27.511H221.897V7.08321H228.842V8.79247C228.929 8.8055 228.975 8.82504 228.987 8.81245C230.611 7.19001 232.665 6.49754 234.895 6.24226C236.926 6.01042 238.939 6.10637 240.888 6.80753ZM271.532 11.4547C271.594 11.7512 271.606 12.0625 271.606 12.3664C271.609 17.2971 271.607 22.2278 271.605 27.158C271.605 27.2588 271.594 27.3599 271.586 27.5032H264.617V26.9253C264.617 22.9641 264.551 19.0012 264.643 15.0417C264.696 12.7711 263.415 11.9427 261.846 11.7009C260.803 11.5402 259.695 11.5029 258.656 11.6618C256.579 11.9809 255.401 13.523 255.396 15.6986C255.385 19.4223 255.389 23.1456 255.388 26.8689V27.5462H248.427V7.09971H255.383V8.84631C255.499 8.79682 255.553 8.78857 255.583 8.75818C257.199 7.1492 259.249 6.49103 261.458 6.23792C263.4 6.01519 265.337 6.0877 267.204 6.73242C269.515 7.52952 271.031 9.05297 271.533 11.4543L271.532 11.4547ZM135.491 7.20174C136.346 7.51737 136.342 7.52692 136.342 8.4013V13.2339C135.349 12.9751 134.397 12.6721 133.422 12.4871C132.222 12.2596 131.008 12.3226 129.808 12.5653C128.113 12.9074 127.004 13.9394 126.599 15.5436C126.29 16.7679 126.134 18.0512 126.097 19.3137C126.025 21.8275 126.08 24.3456 126.083 26.8615V27.5188C125.925 27.534 125.842 27.5492 125.759 27.5492C123.872 27.5509 121.985 27.5505 120.051 27.5505V7.13227H126.181V9.62388C126.242 9.66078 126.304 9.69768 126.366 9.73546C126.412 9.63517 126.446 9.52663 126.508 9.43589C127.705 7.66802 129.442 6.85268 131.55 6.74023C132.886 6.6686 134.218 6.73111 135.492 7.20174H135.491ZM184.846 17.9475C184.809 18.5238 184.703 19.0936 184.532 19.645C183.833 21.8579 182.206 23.0036 179.948 23.4161C176.455 24.0538 173.342 22.0624 172.566 18.676C171.797 15.313 173.997 11.9088 177.368 11.2593C177.724 11.1907 178.09 11.1755 178.369 11.1447C182.213 11.1126 185.159 13.2625 184.847 17.9479L184.846 17.9475ZM183.534 6.67902C179.864 5.76643 176.436 6.32301 173.217 8.53415V0H166.224V27.5175H173.236V26.2211C178.591 30.0113 185.677 28.5643 189.013 24.8444C192.429 21.0343 192.725 14.733 189.65 10.6472C188.107 8.59711 186.033 7.29985 183.534 6.67902ZM281.367 14.5615C281.56 12.7988 282.388 11.5203 284.049 10.8903C285.961 10.1653 287.914 10.1635 289.826 10.8964C291.44 11.515 292.447 12.9803 292.429 14.5615H281.367ZM281.956 19.0507C286.546 19.0411 291.136 19.0346 295.725 19.019C297.006 19.0146 298.286 18.9842 299.566 18.9651V17.8437C299.534 17.6631 299.502 17.4825 299.471 17.3019C299.293 16.2478 299.199 15.1724 298.923 14.1443C297.874 10.2347 295.422 7.60767 291.389 6.55398C288.738 5.8615 286.049 5.85803 283.361 6.389C281.23 6.81013 279.283 7.63849 277.732 9.15673C274.754 12.0695 273.785 15.6465 274.493 19.6372C275.136 23.2637 277.216 25.9298 280.741 27.2557C285.127 28.9051 289.565 28.7805 293.898 26.9913C295.928 26.1534 297.549 24.7784 298.539 22.7991C298.804 22.2686 298.931 21.6716 299.126 21.0899C298.942 21.0482 298.892 21.0273 298.843 21.0273C296.747 21.0273 294.651 21.0221 292.556 21.0412C292.386 21.043 292.173 21.1767 292.058 21.3126C291.166 22.3676 290.054 23.0978 288.705 23.4221C286.794 23.881 284.909 23.8606 283.218 22.7171C281.946 21.8566 281.43 20.588 281.382 19.052H281.956V19.0507Z" fill="black"/>
</g>
<defs>
<clipPath id="clip0_3_17">
<rect width="300" height="33.864" fill="white"/>
</clipPath>
</defs>
</svg>
