<svg width="150" height="66" viewBox="0 0 300 22" fill="none" xmlns="http://www.w3.org/2000/svg">
<g clip-path="url(#clip0_3_23)">
<path d="M5.40618 10.2143V0.960318H8.23799C11.6705 0.960318 12.8719 3.23016 12.8719 5.4127C12.8719 8.38095 11.0698 10.3016 7.29405 10.3016H5.40618V10.2143ZM9.52517 10.7381C14.159 10.3889 16.5618 8.38095 16.5618 5.5C16.5618 2.79365 14.7597 0.349207 9.26773 0.349207H0V1.04762H1.97368V20.9524H0V21.6508H7.72311V20.9524H5.40618V10.8254H5.49199L13.5584 21.5635H18.7071V20.8651H17.1625L9.52517 10.7381Z" fill="black"/>
<path d="M30.635 12.6587L33.8101 3.66667H33.8959L36.9851 12.6587H30.635ZM36.127 0.261906H34.0675L26.7735 20.9524H24.8856V21.6508H30.7208V20.9524H27.6316L30.3776 13.0952H37.1567L39.8169 20.9524H37.5V21.6508H44.5366V20.9524H43.2494L36.127 0.261906Z" fill="black"/>
<path d="M62.9005 20.8651H58.1808V1.04762H61.3558V0.349207H52.7746V1.04762H54.7483V20.9524H52.7746V21.6508H68.2208V13.0952H67.5343C65.6464 20.5159 65.0458 20.8651 62.9005 20.8651Z" fill="black"/>
<path d="M83.667 1.30952H86.9279C90.2746 1.30952 91.6476 3.23016 91.6476 6.19841C91.6476 9.95238 90.103 10.8254 86.6705 10.8254H83.667C83.667 10.6508 83.667 1.30952 83.667 1.30952ZM86.6705 20.9524H83.667V11.2619H87.5286C92.7632 11.2619 95.2517 9.07937 95.2517 5.93651C95.2517 2.79365 92.5057 0.349207 87.5286 0.349207H78.3467V1.04762H80.3204V20.8651H78.3467V21.5635H86.5847V20.9524H86.6705Z" fill="black"/>
<path d="M115.675 20.8651V21.6508H123.141V20.8651H121.167V1.22222H123.141V0.349207H115.675V1.22222H117.649V10.3016H109.325V1.22222H111.384V0.349207H103.919V1.22222H105.807V20.8651H103.919V21.6508H111.384V20.8651H109.325V10.9127H117.649V20.8651H115.675Z" fill="black"/>
<path d="M167.506 13.0079H166.819C164.846 20.4286 164.245 20.8651 162.185 20.8651H157.466V1.04762H160.641V0.349207H152.059V1.04762H154.033V20.9524H152.059V21.6508H167.506V13.0079Z" fill="black"/>
<path d="M180.892 12.6587L184.067 3.66667H184.153L187.243 12.6587H180.892ZM186.47 0.261906H184.411L177.031 20.9524H175.229V21.6508H181.064V20.9524H177.975L180.721 13.0952H187.5L190.16 20.9524H187.843V21.6508H194.88V20.9524H193.678L186.47 0.261906Z" fill="black"/>
<path d="M214.617 0.960317H217.449V16.1508C217.449 19.381 215.303 21.3016 212.214 21.3016C210.154 21.3016 208.009 20.0794 208.009 16.3254V0.960317H210.24V0.0873013H202.603V0.785714H204.577V15.5397C204.577 19.7302 206.894 21.8254 212.128 21.8254C215.904 21.8254 218.392 19.5556 218.392 16.0635V0.960317H220.366V0.0873013H214.617V0.960317Z" fill="black"/>
<path d="M234.525 10.2143V0.960318H237.357C240.789 0.960318 241.991 3.23016 241.991 5.4127C241.991 8.38095 240.189 10.3016 236.413 10.3016H234.525V10.2143ZM238.73 10.7381C243.364 10.3889 245.767 8.38095 245.767 5.5C245.767 2.79365 243.965 0.349207 238.473 0.349207H229.205V1.04762H231.178V20.9524H229.205V21.6508H236.928V20.9524H234.439V10.8254H234.525L242.592 21.5635H247.74V20.8651H246.281L238.73 10.7381Z" fill="black"/>
<path d="M266.362 20.8651H260.784V10.8254H263.272C264.903 10.8254 265.589 11.7857 266.276 15.0159H266.962V5.84921H266.276C265.675 9.16667 264.817 10.0397 263.272 10.0397H260.784V0.960318H267.134C268.678 0.960318 269.193 1.39683 270.91 7.07143H271.596V0.349207H255.378V1.04762H257.351V20.9524H255.378V21.6508H271.939V13.7063H271.167C269.279 19.9921 268.593 20.8651 266.362 20.8651Z" fill="black"/>
<path d="M294.508 0.349207V1.22222H297.082V15.7143H296.997L287.557 0.349207H281.465V1.22222H283.61V20.8651H281.465V21.6508H287.128V20.8651H284.468V1.74603L296.911 21.6508H297.855V1.22222H300V0.349207H294.508Z" fill="black"/>
</g>
<defs>
<clipPath id="clip0_3_23">
<rect width="300" height="22" fill="white"/>
</clipPath>
</defs>
</svg>
