<?xml version="1.0" encoding="UTF-8"?>
<!DOCTYPE svg PUBLIC "-//W3C//DTD SVG 1.1//EN" "http://www.w3.org/Graphics/SVG/1.1/DTD/svg11.dtd">
<!-- Creator: CorelDRAW 2019 (64-Bit) -->
<svg xmlns="http://www.w3.org/2000/svg" xml:space="preserve" width="150" height="66" version="1.1" style="shape-rendering:geometricPrecision; text-rendering:geometricPrecision; image-rendering:optimizeQuality; fill-rule:evenodd; clip-rule:evenodd"
viewBox="0 0 11417.82 2022.39"
 xmlns:xlink="http://www.w3.org/1999/xlink">
 <defs>
  <style type="text/css">
   <![CDATA[
    .fil0 {fill:black;fill-rule:nonzero}
   ]]>
  </style>
 </defs>
 <g id="Layer_x0020_1">
  <metadata id="CorelCorpID_0Corel-Layer"/>
  <path class="fil0" d="M3734.98 1021.87l232.74 0 -83.41 -320.24 -149.33 320.24zm-28.82 70.09l-293.25 623.06c-198.34,406.26 -668.69,380.66 -985.18,93.16l50.15 -160.12c420.63,680.97 1125.01,145.84 751.66,-327.9l-547.84 -647.97c-373.09,-430.73 -598.33,25.43 -390.68,191.29l307.35 232.56c226.2,160.38 150.63,501.17 -141.75,531.55 -135.22,14.19 -289.68,-44.75 -382.41,-108.83l-25.16 86.11 -599.03 0c10.45,-19.15 22.03,-55.29 21.94,-82.72l-1.57 -993.97c0.61,-18.2 -11.06,-19.42 -17.85,-4.27l-528.25 1130.59 -233.34 -1024.62c-7.75,-25.17 -23.42,-1.48 -23.42,-1.48 -39.44,53.89 -211.4,295.68 -242.31,337.3 -22.81,30.56 -32.22,51.02 -49.54,101.44 -8.79,25.07 -197.9,785.36 -206.53,814.87 -7.75,26.73 2.87,81.84 17.42,95.69l-186.59 0c6.27,-5.14 37.09,-40.75 43.97,-69.05l148.54 -767.34c33.17,-151.15 -9.06,-304.04 -9.06,-304.04 -92.03,-537.04 -112.05,-768.82 -159.94,-805.3l155.16 0c4.79,28.3 183.72,873.82 194.6,914.83 -10.88,17.15 595.03,-907.34 595.03,-907.34l156.55 0c0,0 -78.28,74.09 -92.29,93.07 -11.93,15.85 -200.96,273.48 -224.55,305.44l180.66 972.04 390.68 -935.64 649.62 0 0 106.13c-71.05,-35.61 -318.41,-78.97 -416.19,-66.26l-9.14 471.74c0.44,25.86 0.09,28.04 23.25,28.04l402.86 -0.52 0 65.04 -430.99 0 -13.41 455.89c0,31.78 22.9,34.91 42.49,35.7 168.74,6.44 327.64,-15.5 444.4,-66.69l27.86 -102.13c129.73,158.55 234.65,214.45 371.52,175.01 130.95,-38.57 257.11,-217.85 15.58,-386.32l-235.35 -166.3c-325.38,-245.88 -50.33,-777.52 410.88,-511.61 -1.57,-463.03 588.06,-693.68 1004.42,-340.44l-41.01 152.46c-367.51,-597.12 -1040.82,-106.14 -729.37,319.72l440.74 576.22c98.91,124.07 115.98,214.1 115.98,214.1l518.67 -993.11 257.98 1079.04c9.32,34.57 28.04,68.78 41.62,81.84 -0.18,-0.17 -148.19,-0.17 -148.45,0 0.26,-0.17 -136.96,-509.53 -136.96,-509.53l-280.19 -0.43zm7711.66 -603.99l-812 0 0 982.22 -711.96 -982.57c0,0 -165.43,0 -195.55,0 10.18,12.54 72.44,92.9 81.24,105.18 0,28.56 -31.09,917 -31.09,917 -1.74,41.18 -2.78,72.79 -16.8,103 22.64,0 97.52,0 97.52,0l-0.35 -952.01c0,0 800.16,1022.62 814.44,1042.99 1.39,-39.53 40.75,-1078.87 40.75,-1078.87 -0.17,-23.68 -0.17,-89.07 62.78,-89.24 0.7,0 203.48,0 203.48,0l6.53 1000.76c-2.44,39.18 -6.79,49.28 -15.15,76.01 0,0.17 144.27,0.35 144.27,0.35 -7.23,-26.04 -10.62,-39.79 -9.06,-75.84l34.65 -1001.29c121.63,0.17 197.12,0.17 306.31,32.56l0 -80.28zm-6812.59 -10.71l81.5 104.83 -30.56 917.01c-2.17,38.66 -17.33,87.68 -27.43,102.83 -1.65,-0.17 107.44,0 107.44,0l-0.35 -951.74 814.79 1042.91 48.67 -1077.73c1.65,-23.77 -11.15,-78.8 50.24,-80.28l186.59 0 7.83 975.34c-1.13,40.57 -4.7,63.91 -14.71,91.51 0.52,-0.17 149.76,-0.17 150.45,0 -6.62,-23.16 -12.36,-49.72 -11.93,-86.98l33.7 -979.26c119.02,-0.26 247.36,2.09 353.33,41.44l-278.1 1293.49c-14.45,51.46 -28.39,89.33 -44.06,109.79l985.44 0 82.19 -142.44c-175.62,59.82 -615.92,98.39 -829.68,95.26 -69.13,-1.05 -71.83,-36.92 -61.21,-78.19l430.38 -1803.02 -202.78 0c20.37,25.86 20.37,52.59 12.62,96.47l-72.18 328.77 -864.5 0 0 983.09 -712.13 -983.09 -195.55 0zm-259.64 1124.66c0,0 135.22,-0.17 137.22,0 -8.36,-3.83 -28.21,-49.72 -26.56,-64.69l11.76 -1059.97 -182.76 0c21.16,21.16 42.23,62.08 42.23,98.91 0,0 18.11,1025.58 18.11,1025.75zm3914.43 -1117.26c18.37,22.46 34.04,55.64 34.83,119.55l-26.64 906.82c-4.18,37.44 -14.11,73.92 -25.51,89.5l152.2 0 53.89 -1081.04c378.23,-98.91 547.84,488.81 46.32,580.92 36.31,41.97 528.42,560.72 550.53,584.93 67.74,73.48 250.93,139.92 294.03,157.33 -89.33,-55.46 -224.64,-201.13 -241.44,-228.9 34.83,0.7 547.66,0 547.66,0l47.45 -105.18c0,0 -166.13,59.47 -433.69,59.47 -21.77,0 -51.81,2.26 -51.81,-33.17l0 -444.75 408.96 0 0 -67.48 -408.96 0 10.97 -489.24c274.35,1.65 397.99,62.95 397.99,62.95l0 -114.58 -583.88 0c0,0 34.74,33.52 37.27,114.58 0,0 11.75,1000.85 11.75,1004.16 -15.93,-21.76 -426.11,-523.8 -426.11,-523.8 338.52,-64.43 580.31,-734.6 -395.81,-592.07zm-709.96 799.11l-1.65 -801.99c0,0 -161.34,0 -177.53,0 22.72,12.28 35.26,57.99 38.13,112.67 3.31,23.94 13.15,693.85 15.93,737.91 27.17,401.21 606.52,477.14 641.61,-44.67 2.7,-47.54 25.86,-534.51 27.95,-567.25 6.36,-95.69 18.02,-212.71 50.68,-238.57l-129.56 -0.09 -0.96 780.31c-0.61,423.24 -463.12,410.27 -464.6,21.68zm-743.56 -256.59l244.49 0 -90.72 -338.87 -153.76 338.87zm-379.71 573.34c11.93,-12.28 38.4,-49.54 51.37,-72l566.47 -1111.26 257.55 1093.58c0,0 31,79.15 45.89,89.68 -18.81,0 -110.23,0 -135.83,0 -9.31,-31.08 -144.97,-515.36 -144.97,-515.36l-288.02 0c0,0 -229.08,501.17 -235.44,515.36 -18.89,0 -110.92,0 -117.02,0z"/>
 </g>
</svg>
