<?xml version="1.0" encoding="UTF-8"?>
<!DOCTYPE svg PUBLIC "-//W3C//DTD SVG 1.1//EN" "http://www.w3.org/Graphics/SVG/1.1/DTD/svg11.dtd">
<!-- Creator: CorelDRAW 2019 (64-Bit) -->
<svg xmlns="http://www.w3.org/2000/svg" xml:space="preserve" width="150" height="26" version="1.1" style="shape-rendering:geometricPrecision; text-rendering:geometricPrecision; image-rendering:optimizeQuality; fill-rule:evenodd; clip-rule:evenodd"
viewBox="0 0 5162.33 1444.88"
 xmlns:xlink="http://www.w3.org/1999/xlink">
 <defs>
  <style type="text/css">
   <![CDATA[
    .fil0 {fill:#373435;fill-rule:nonzero}
   ]]>
  </style>
 </defs>
 <g id="Layer_x0020_1">
  <metadata id="CorelCorpID_0Corel-Layer"/>
  <g id="_1787269676096">
   <path class="fil0" d="M3427.32 742.38c0.69,-87.95 -5.89,-168.77 -22.92,-248.55 -20.08,-94.09 -52.53,-183.3 -106.57,-263.66 -47.06,-70 -106.45,-126.34 -183.49,-162.51 -70.47,-33.08 -144.76,-43.59 -221.89,-36.84 -80.29,7.02 -152.73,34.47 -216.63,83.75 -68.5,52.83 -116.73,121.36 -152.86,199.07 -39.61,85.22 -61.73,175.31 -72.38,268.25 -14.42,125.78 -10.64,251.01 15.67,375.13 18.05,85.24 46.89,166.47 93.05,240.86 47.78,76.98 109.59,139.11 192.64,177.81 87.69,40.87 179.53,48.2 273.75,30.74 84.76,-15.71 157.04,-55.57 217.33,-116.88 54.25,-55.16 92.43,-120.68 120.47,-192.33 45.46,-116.13 61.81,-237.47 63.82,-354.84zm-512.47 702.5c-15.24,-1.11 -30.49,-2.18 -45.72,-3.35 -174.75,-13.4 -330.18,-73.21 -459.38,-193.88 -99,-92.47 -164.66,-205.51 -196.99,-336.84 -43.11,-175.13 -30.31,-346.48 46.11,-510.55 80.11,-171.98 212.6,-288.19 390.35,-352.99 83.72,-30.52 170.58,-44.55 259.59,-46.9 10.33,-0.27 20.65,-0.4 30.93,-0.38 99.47,0.21 196.81,14.57 290.19,50.91 236.82,92.16 381.44,264.48 434.32,512.1 32.77,153.43 20.9,305 -40.35,450.11 -90.26,213.82 -252.06,345.87 -474.98,404.95 -61.57,16.32 -124.46,24.15 -188.16,25.39 -2.25,0.04 -4.49,0.94 -6.74,1.43 -13.05,0 -26.11,0 -39.16,0z"/>
   <path class="fil0" d="M4150.88 735.34c2.9,0.26 4.63,0.55 6.35,0.54 53.39,-0.46 106.82,0.4 160.13,-1.79 64.79,-2.66 127.46,-16.61 186.41,-44.44 80.09,-37.81 138.01,-96.29 165.66,-181.84 19.54,-60.45 21.72,-122.34 11.53,-184.62 -13.46,-82.26 -52.62,-149.06 -122.07,-196.68 -61.78,-42.35 -131.49,-62.57 -205.12,-68.18 -47.8,-3.65 -95.99,-3.02 -144.01,-2.94 -38.29,0.06 -58.87,22.2 -58.87,60.53 -0.01,202.94 -0.01,405.87 -0.01,608.81 0,3.24 0,6.46 0,10.63zm280.08 24.6c29.04,9.26 59.37,16.67 87.91,28.44 101.75,41.97 187.92,105.27 249.79,197.15 29.35,43.6 52.78,91.24 77.99,137.54 31.05,57.02 61.36,114.46 100.19,166.77 25.05,33.74 52.84,64.83 88.5,87.95 32.39,21 67.54,31.16 106.35,27.28 11.56,-1.15 18.82,2.54 20.33,9.82 1.85,8.94 -4.36,17.96 -16.02,19.72 -20.48,3.06 -41.1,5.81 -61.78,6.66 -70.79,2.9 -140.32,-4.65 -207.36,-29.1 -99.54,-36.3 -175.81,-101.32 -233.17,-189.51 -34.04,-52.32 -60.12,-108.88 -87.15,-164.92 -27.31,-56.6 -54.73,-113.14 -92.23,-164.02 -38.14,-51.74 -84.8,-92.45 -146.6,-113.75 -33.72,-11.62 -68.57,-16.02 -104,-16.68 -20.44,-0.38 -40.89,-0.07 -62.81,-0.07 0,4.29 0,8 0,11.71 0,183.98 -0,367.95 0.01,551.92 0,36.99 23.39,60.52 60.71,60.72 38.58,0.19 77.16,0.01 115.73,0.09 3.82,0.01 8.65,-0.59 11.2,1.39 3.73,2.91 7.81,7.83 8,12.06 0.17,3.77 -3.98,8.94 -7.64,11.32 -3.32,2.16 -8.56,1.83 -12.94,1.83 -194.36,0.07 -388.72,0.07 -583.08,0.07 -13.66,0 -21.3,-5.06 -20.97,-13.79 0.33,-8.3 7.76,-12.92 20.87,-12.92 37.39,-0 74.78,0 112.17,0 32.57,0 54,-17.52 60.39,-49.71 1.09,-5.48 1.63,-11.17 1.63,-16.77 0.07,-398.22 0.11,-796.44 -0.15,-1194.66 -0.01,-11.68 -1.89,-23.76 -5.2,-34.96 -7.09,-23.97 -24.81,-36.27 -49.86,-36.33 -39.76,-0.1 -79.53,-0.03 -119.29,-0.03 -2.38,0 -4.76,0.08 -7.12,-0.04 -9.63,-0.53 -15.41,-5.79 -15.31,-13.82 0.11,-7.86 5.35,-12.36 15.02,-12.83 2.37,-0.12 4.75,-0.04 7.13,-0.04 191.99,0 383.97,-0.5 575.96,0.2 100.12,0.36 199.68,8.2 297.16,32.91 65.71,16.67 128.13,40.94 182.34,82.98 63.37,49.15 99.39,114.25 111.35,192.97 8.68,57.22 8.13,114.15 -9.46,169.89 -22.89,72.54 -70.42,125.22 -134.44,164.12 -56.66,34.44 -118.77,54.49 -183.15,68.23 -48.79,10.42 -98.18,16.62 -147.94,19.92 -1.36,0.09 -2.72,0.28 -3.04,0.32z"/>
   <path class="fil0" d="M435.37 719.18c-0.2,0 -0.4,0 -0.6,0 0,14.83 0,29.65 0,44.48 0,178.61 0,357.23 0,535.84 0,16.9 -0.11,33.82 0.02,50.73 0.22,26.33 11.33,37.37 37.42,37.37 56.96,0.01 113.93,-0.02 170.9,0.01 49.94,0.04 99.49,-4.02 148.48,-14 104.9,-21.37 197.03,-67.1 272.38,-144.16 67.34,-68.88 111.75,-151.33 139.41,-242.86 45.15,-149.37 49.98,-300.99 20.89,-453.8 -16.7,-87.76 -46.91,-170.67 -95.05,-246.43 -55.74,-87.73 -129.65,-154.42 -226.52,-194.18 -62.83,-25.78 -128.57,-36.72 -196.2,-36.98 -77.43,-0.3 -154.88,0.26 -232.31,-0.25 -26.24,-0.17 -38.99,3.14 -38.95,39.39 0.26,208.28 0.13,416.56 0.13,624.84zm-238.02 2.9c0,-200.6 0,-401.21 -0.01,-601.81 0,-29.99 -13.26,-51.59 -37.52,-59.4 -8.03,-2.59 -16.85,-3.69 -25.33,-3.78 -38.57,-0.39 -77.15,-0.11 -115.73,-0.21 -13.06,-0.03 -18.73,-4.54 -18.76,-14.32l0 -0.47c0.11,-7.22 3.39,-11.89 10.74,-12.94 3.8,-0.55 7.67,-0.72 11.52,-0.72 225.23,-0.03 450.48,-0.54 675.71,0.17 122.92,0.39 243.56,16.67 359.61,59.46 90.15,33.24 171.26,81.24 239.98,148.91 86.68,85.35 141.5,188.63 169.29,306.46 22.28,94.47 27.71,190.02 12.63,286.13 -19.29,122.94 -70.21,231.37 -153.04,324.33 -93.97,105.48 -211.9,172.77 -345.68,214.03 -90.63,27.95 -183.63,43.28 -278.32,44.83 -120.14,1.96 -240.32,1.3 -360.49,1.52 -106.83,0.2 -213.66,0.05 -320.49,0.04 -13.87,0 -21,-4.6 -21.11,-13.56 -0.11,-8.8 7.37,-13.72 21.14,-13.73 37.68,-0.04 75.38,0.15 113.06,-0.06 40.53,-0.23 62.79,-22.72 62.8,-63.05 0.02,-87.84 0,-175.68 0,-263.52 0,-112.77 0,-225.54 0,-338.3z"/>
   <path class="fil0" d="M1954.23 721.47c0,200.89 0.02,401.79 -0.04,602.68 -0.01,18.1 3.02,34.91 17.5,47.57 12.64,11.04 27.65,15.8 44.19,15.85 35.61,0.12 71.22,-0.02 106.83,0.07 11.42,0.03 16.5,4.31 17.28,13.58 0.49,5.94 -1.91,10.02 -7.66,11.23 -5.18,1.1 -10.56,1.79 -15.86,1.79 -187.24,0.08 -374.48,0.07 -561.73,0.06 -2.08,0 -4.17,0.08 -6.22,-0.13 -6.91,-0.74 -13.07,-2.26 -12.73,-11.35 0.34,-9.24 5.04,-14.58 13.94,-15.17 2.36,-0.15 4.75,-0.05 7.12,-0.05 33.83,0 67.66,0 101.49,0 32.34,0 52.87,-16.35 59.91,-48.03 1.15,-5.16 1.76,-10.55 1.76,-15.83 0.08,-400.31 0.11,-800.61 -0.15,-1200.92 -0.01,-10.78 -2.08,-21.92 -5.26,-32.24 -7.13,-23.1 -24.5,-35.31 -48.64,-35.41 -37.09,-0.16 -74.19,-0.02 -111.28,-0.07 -3.55,-0 -7.13,-0.19 -10.63,-0.72 -6.16,-0.94 -9.17,-5.01 -9.76,-10.98 -0.6,-6 1.57,-10.85 7.48,-12.56 5.04,-1.46 10.43,-2.33 15.66,-2.33 186.06,-0.11 372.12,-0.1 558.18,-0.05 4.12,0 8.44,0.06 12.31,1.26 6.77,2.1 9.77,7.2 9.09,14.42 -0.64,6.81 -4.81,9.86 -11.07,10.61 -2.93,0.35 -5.91,0.37 -8.87,0.37 -34.13,0.03 -68.25,-0.17 -102.38,0.07 -38.75,0.26 -59.88,21.43 -60.45,60.03 -0.04,2.67 -0.01,5.34 -0.01,8.01 0,199.42 0,398.82 0,598.23z"/>
  </g>
 </g>
</svg>
