<?xml version="1.0" encoding="UTF-8"?>
<!DOCTYPE svg PUBLIC "-//W3C//DTD SVG 1.1//EN" "http://www.w3.org/Graphics/SVG/1.1/DTD/svg11.dtd">
<!-- Creator: CorelDRAW 2019 (64-Bit) -->
<svg xmlns="http://www.w3.org/2000/svg" xml:space="preserve" width="8.41379in" height="2.03854in" version="1.1" style="shape-rendering:geometricPrecision; text-rendering:geometricPrecision; image-rendering:optimizeQuality; fill-rule:evenodd; clip-rule:evenodd"
viewBox="0 0 8413.74 2038.52"
 xmlns:xlink="http://www.w3.org/1999/xlink">
 <defs>
  <style type="text/css">
   <![CDATA[
    .fil0 {fill:#263036}
   ]]>
  </style>
 </defs>
 <g id="Layer_x0020_1">
  <metadata id="CorelCorpID_0Corel-Layer"/>
  <g id="_1826350821600">
   <path class="fil0" d="M3342.75 1871.14l0 -79.36 118.22 0c32.46,0 60.99,2.71 60.99,39.48 0.01,37.17 -28.53,39.88 -60.99,39.88l-118.22 0zm-56.54 160.58l56.54 0 0 -111.59 105.76 0c49.22,0 130.09,0 130.09,-88.41 0,-88.51 -80.87,-88.51 -130.1,-88.51l-162.29 0 0 288.51z"/>
   <path class="fil0" d="M3761.81 1917.14l60.81 -129.06 60.92 129.06 -121.74 0zm-115.12 114.58l60.45 0 30.97 -66.05 167.85 0 30.52 66.05 60.02 0 -141.37 -288.67 -65 0 -143.44 288.67z"/>
   <path class="fil0" d="M4194.97 1871.14l0 -81.53 110.38 0c46.5,0 70.26,6.85 70.26,40.76 0,33.94 -23.77,40.77 -70.26,40.77l-110.38 0zm-56.64 160.58l56.64 0 0 -114.02 90.38 0 84.98 114.02 69.86 0 -89.05 -117.83c42.8,-2.08 81.04,-31.57 81.04,-84.89 0,-70.54 -49.29,-85.95 -118.49,-85.95l-175.35 0 0 288.67z"/>
   <polygon class="fil0" points="4609.94,1743.05 4666.56,1743.05 4666.56,2031.72 4609.94,2031.72 "/>
   <path class="fil0" d="M5069.26 1830.67c-9.07,-25.41 -32.68,-47.76 -101.87,-47.76 -38.65,0 -77.35,9.69 -77.35,36.02 0,12.33 7.3,25.35 65.36,32.24l68.65 10.55c65.36,9.86 103.67,34.74 103.67,83.03 0,67.83 -65.55,93.77 -143.08,93.77 -124.91,0 -155.4,-61.51 -162.13,-83.35l54.67 -16.85c10.5,20.96 32.13,51.47 108.96,51.47 46.64,0 84.95,-15.16 84.95,-40.04 0.01,-18.61 -21.78,-30.68 -63.39,-35.87l-69.55 -9.51c-67.16,-9 -104.55,-38.16 -104.55,-81.9 0,-85.98 112.94,-85.98 135.26,-85.98 125.43,0 146.71,57.18 154.16,76.9l-53.75 17.26z"/>
   <path class="fil0" d="M7253.95 1289.99c23.95,199.87 129.07,170.11 134.38,187.63 0,0 -405.64,-0.56 -405.8,-1.28 -1.99,-7.11 116.56,-2.17 92.77,-177.93l-105.64 -780.53c-4.22,-20.59 -4.22,-44.02 -16,-38.85 -8.19,3.81 -357.68,843.35 -357.68,843.35 -5.09,13.7 -13.79,22.42 -25.22,2.45 -8.19,-14.44 -326.66,-710.63 -326.66,-710.63 -15.78,-34.85 -43.74,-90.61 -48.3,-100.41 -8.34,-17.33 -20.68,-19.49 -19.78,38.95l-82.96 791.26c-19.43,137.96 111.63,127.46 110.02,136.07l-288.1 0c-3.65,-6.71 96.4,6.25 118.53,-138.81l94.61 -873.22c-7.09,-169.31 -126.36,-160.23 -126.36,-174.38l301.9 -0.01 4.39 9.44 320.81 694.82c4.53,8.18 7.28,12.54 9.62,17.25 9.46,19.97 8.34,33.86 19.26,7.34l314.44 -729.76 290.53 0.9c1.79,10.26 -116.79,5.09 -116.79,150.04l108.04 846.28z"/>
   <path class="fil0" d="M628.12 1438.49l-164.14 0.26c-57.02,-2.18 -125.55,8.45 -125.55,-58.96l0 -918.44c0,-141.98 158.76,-142.44 169.13,-153.61l-488.41 0c-6.99,10.09 149.34,13.99 149.34,158.78l0 886.01c-2.48,117.11 -168.49,119.82 -168.49,126.72l865.03 0 48.2 -253.72c-18.51,-1.67 -5.35,209.34 -285.11,212.97z"/>
   <path class="fil0" d="M2471.18 1356.87c16.73,146.07 128.63,108.86 128.72,122.9l-313.62 0.3c0.9,-14.07 125.63,-0.56 123.54,-132.09l0 -13.33 0 -876.86c2.35,-153.61 -132.63,-153.87 -136.1,-165.85l314.3 0 651.14 801.16 -1.89 -650.21c-4.36,-157.21 -125.38,-145.97 -127.27,-154.23l328.46 0c-1.3,7.73 -129.91,10.63 -136.44,154.23l-1.09 1006.77c0,0 11.42,76.42 -35.5,16.06 -20.52,-26.24 -782.54,-984.97 -782.54,-984.97 -7.06,-7.98 -10.33,1 -10.88,24.52l-0.83 838.37 0 13.23z"/>
   <path class="fil0" d="M2049.52 1330.37l-437.91 -1031.63c-31.88,-35.4 -42.77,4.9 -42.77,4.9 -43.29,99.15 -443.28,1055.59 -443.28,1055.59 -54.54,127.64 -125.36,112.48 -125.36,121.1l282.96 0c0,-14.06 -152.88,9.28 -100.48,-123.55l151.42 -368.39c15.81,-23.13 16.8,-30.12 54.17,-30.12 62.75,0 253.84,-0.45 282.97,-0.45 34.68,0 36.31,0 51.28,34.14l143.18 348.14c41.76,139.42 -85.79,131.62 -83.97,140.24l402.15 0c3.63,-12.15 -61.36,27.79 -134.35,-149.96zm-633.91 -429.13c-31.69,0 -27.43,-18.23 -15.16,-47.47 0,0 106.83,-264.35 119.56,-296.68 16.34,-41.12 33.94,-32.95 46.02,2.73l107.57 298.75c10.64,33.04 23.8,42.67 -12.16,42.67 -28.43,0.09 -235.13,0 -245.83,0z"/>
   <polygon class="fil0" points="5751,235.66 5269.86,0 4789.28,235.66 5269.86,89.59 "/>
   <path class="fil0" d="M5272.58 271.51c-374.53,0 -616.35,296.49 -616.35,611.68 0,315.16 238.72,596.33 613.3,596.33 374.89,0 620.36,-281.17 620.36,-596.33 0,-315.19 -242.37,-611.68 -617.31,-611.68zm-2.72 1163.71c-1.26,0 -2.54,0.19 -3.81,0.19l-0.17 0c-230.01,0 -382,-214.79 -382,-549.68 0,-383.55 155.43,-569.26 385.45,-569.26l0.52 0c229.86,0.26 386.4,186 386.4,569.26 0.01,333.08 -158.34,547.04 -386.4,549.5z"/>
   <path class="fil0" d="M4130.49 1432.5c270.71,-4.35 391.75,-191.19 416.04,-199.62 12.04,-3.91 -131.99,244.75 -419.48,244.75 -645.48,0 -634.15,-580.83 -634.15,-580.83 20.01,-408.12 352.42,-651.33 670.84,-617.91 85.33,8.97 122.72,22.32 185.38,42.39 29.41,9.26 108.65,52.11 140.24,40.32 22.13,-8.21 38.31,-54.4 43.77,-57.41l3.08 318.48c-22.73,0 -93.68,-306.2 -401.15,-306.2 -251.77,0 -442.97,286.03 -438.89,565.73 6.71,467.88 335.22,552.11 434.32,550.31z"/>
   <path class="fil0" d="M7811.16 894.08l0.35 292.49 0 153.52c0.93,88.58 -7.08,99.39 50.86,99.76l319.5 -0.37c77.92,-4.81 128.01,-24.67 160.36,-49.93 73.51,-57.91 56.44,-144.71 71.33,-147.79l-7.42 237.75 -897.83 0c-3.63,-8.6 133.46,14.17 133.46,-180.83l0 -153.89 0 -666.4c0,-195.16 -126.38,-165.68 -124.75,-181l889.11 0 7.6 234.67c-17.79,-1.36 29.25,-183.85 -235.12,-199.91l-295.24 0c-51.13,0 -71.87,0.46 -71.87,97.4l-0.35 252.65 1.09 56.27c0,43.21 0.75,47.23 61.92,47.23l285.4 0c143.8,0 124.36,-128.91 137.09,-128.91 0.53,0 0,305.28 0,305.28 -12.73,0 6.13,-141.44 -130.55,-137.06l-288.7 0c-63.37,-1.12 -65.17,21.41 -65.17,64.71l-1.09 4.36z"/>
  </g>
 </g>
</svg>
