<?xml version="1.0" encoding="UTF-8"?>
<!DOCTYPE svg PUBLIC "-//W3C//DTD SVG 1.1//EN" "http://www.w3.org/Graphics/SVG/1.1/DTD/svg11.dtd">
<!-- Creator: CorelDRAW 2019 (64-Bit) -->
<svg xmlns="http://www.w3.org/2000/svg" xml:space="preserve" width="10.2173in" height="0.690764in" version="1.1" style="shape-rendering:geometricPrecision; text-rendering:geometricPrecision; image-rendering:optimizeQuality; fill-rule:evenodd; clip-rule:evenodd"
viewBox="0 0 10217.25 690.76"
 xmlns:xlink="http://www.w3.org/1999/xlink">
 <defs>
  <style type="text/css">
   <![CDATA[
    .fil0 {fill:#373435}
   ]]>
  </style>
 </defs>
 <g id="Layer_x0020_1">
  <metadata id="CorelCorpID_0Corel-Layer"/>
  <g id="_1787270177680">
   <g>
    <path class="fil0" d="M594.62 676.28l-90.87 0 -156.07 -281.84 -268.01 0 0 281.84 -79.68 0 0 -676.28 337.15 0c102.07,0 273.28,19.09 273.28,194.26 0,146.18 -94.17,192.94 -173.18,201.5l157.38 280.52zm-224.55 -360.86c89.55,0 161.33,-10.54 161.33,-121.16 0,-83.63 -73.75,-115.24 -146.84,-115.24l-304.88 0 0 236.4 290.4 0z"/>
   </g>
   <g>
    <path class="fil0" d="M1202.42 96.14l122.48 268.66 -249.57 0 127.09 -268.66zm-39.51 -96.14l-322.01 676.28 88.24 0 106.68 -231.79 324.64 0 109.97 231.79 88.24 0 -316.74 -676.28 -79.02 0z"/>
   </g>
   <g>
    <polygon class="fil0" points="1854.33,0 1854.33,676.28 2358.74,676.28 2358.74,597.26 1933.35,597.26 1933.35,0 "/>
   </g>
   <g>
    <path class="fil0" d="M2725.52 676.28l-79.02 0 0 -676.28 373.37 0c83.63,0 212.69,33.58 212.69,193.6 0,143.55 -93.51,192.94 -212.69,192.94l-294.35 0 0 289.74zm294.35 -368.76c75.72,0 133.67,-23.71 133.67,-113.92 0,-94.82 -65.19,-114.58 -133.67,-114.58l-294.35 0 0 228.5 294.35 0z"/>
   </g>
   <g>
    <polygon class="fil0" points="4079.4,0 4079.4,283.15 3644.79,283.15 3644.79,0 3565.77,0 3565.77,676.28 3644.79,676.28 3644.79,362.17 4079.4,362.17 4079.4,676.28 4159.07,676.28 4159.07,0 "/>
   </g>
   <g>
    <polygon class="fil0" points="5053.31,0 5053.31,676.28 5557.72,676.28 5557.72,597.26 5132.99,597.26 5132.99,0 "/>
   </g>
   <g>
    <path class="fil0" d="M6092.42 96.14l122.48 268.66 -249.57 0 127.09 -268.66zm-39.51 -96.14l-322 676.28 88.24 0 106.68 -231.79 324.64 0 109.97 231.79 88.24 0 -316.74 -676.28 -79.02 0z"/>
   </g>
   <g>
    <path class="fil0" d="M7342.91 413.53c0,173.18 -90.87,277.23 -298.96,277.23 -214.01,0 -298.3,-103.39 -298.3,-277.23l0 -413.53 79.68 0 0 414.2c0,143.55 75.73,197.55 219.28,197.55 143.55,0 219.28,-54 219.28,-197.55l0 -414.2 79.68 0 0 413.53 -0.66 0z"/>
   </g>
   <g>
    <path class="fil0" d="M8339.22 676.28l-90.87 0 -156.06 -281.84 -268.01 0 0 281.84 -79.68 0 0 -676.28 337.15 0c102.07,0 273.27,19.09 273.27,194.26 0,146.18 -93.51,192.94 -173.18,201.5l157.38 280.52zm-224.55 -360.86c89.55,0 161.33,-10.54 161.33,-121.16 0,-83.63 -73.75,-115.24 -146.85,-115.24l-304.88 0 0 236.4 290.4 0z"/>
   </g>
   <g>
    <polygon class="fil0" points="8696.78,0 8696.78,676.28 9271.65,676.28 9271.65,597.26 8775.8,597.26 8775.8,365.47 9026.69,365.47 9026.69,285.79 8775.8,285.79 8775.8,79.02 9251.89,79.02 9251.89,0 "/>
   </g>
   <g>
    <polygon class="fil0" points="10137.58,0 10137.58,558.4 10136.26,558.4 9697.7,0 9618.02,0 9618.02,676.28 9697.7,676.28 9697.7,125.11 9699.67,125.11 10137.58,676.28 10217.25,676.28 10217.25,0 "/>
   </g>
  </g>
 </g>
</svg>
